<?xml version="1.0" encoding="UTF-8" standalone="no"?>
<svg
   xmlns:dc="http://purl.org/dc/elements/1.1/"
   xmlns:cc="http://creativecommons.org/ns#"
   xmlns:rdf="http://www.w3.org/1999/02/22-rdf-syntax-ns#"
   xmlns:svg="http://www.w3.org/2000/svg"
   xmlns="http://www.w3.org/2000/svg"
   viewBox="0 0 139.7428 48.902931"
   height="48.902931"
   width="139.7428"
   xml:space="preserve"
   id="svg2"
   version="1.1"><metadata
     id="metadata8"><rdf:RDF><cc:Work
         rdf:about=""><dc:format>image/svg+xml</dc:format><dc:type
           rdf:resource="http://purl.org/dc/dcmitype/StillImage" /><dc:title></dc:title></cc:Work></rdf:RDF></metadata><defs
     id="defs6"><clipPath
       id="clipPath20"
       clipPathUnits="userSpaceOnUse"><path
         id="path18"
         d="M 0,0 H 698 V 977 H 0 Z" /></clipPath><clipPath
       id="clipPath32"
       clipPathUnits="userSpaceOnUse"><path
         id="path30"
         d="M 10,926.5366 H 327.125 V 967 H 10 Z" /></clipPath><clipPath
       id="clipPath38"
       clipPathUnits="userSpaceOnUse"><path
         id="path36"
         d="m 0,917 h 337 v 60 H 0 Z" /></clipPath></defs><g
     transform="matrix(1.3333333,0,0,-1.3333333,-13.333333,1288.8033)"
     id="g10"><g
       id="g12" /><path
       d="m 10,930.5464 h 18.81 c 4.97375,0 9.295,1.0683 12.359,3.7695 3.06387,2.7007 4.94237,7.066 4.94625,13.8442 -0.0025,7.2803 -1.75538,11.7018 -4.67287,14.3199 -2.9175,2.6211 -7.09475,3.501 -12.07963,3.5 v 10e-4 H 10 v -7.6524 h 16.39988 c 2.48487,0.0131 4.18362,-0.8681 5.14362,-2.5732 0.96288,-1.6919 1.25138,-4.0992 1.25488,-7.2324 -0.0035,-3.0289 -0.26713,-5.4093 -1.2085,-7.1026 -0.94,-1.7027 -2.6275,-2.6147 -5.13963,-2.6001 h -3.73637 v 12.5429 H 10 v -20.8168"
       style="fill:#2056ae;fill-opacity:1;fill-rule:nonzero;stroke:none"
       id="path40" /><path
       d="m 48.8765,930.5464 h 12.71337 v 12.854 h 15.83937 v 7.9628 H 61.58987 v 6.9654 h 15.83937 v 7.6524 H 48.8765 v -35.4346"
       style="fill:#2056ae;fill-opacity:1;fill-rule:nonzero;stroke:none"
       id="path42" /><path
       d="m 86.18413,962.1332 c -3.75588,-2.9711 -6.13037,-7.3886 -6.13526,-13.3515 0.0049,-6.3647 2.29,-11.0439 5.99363,-14.1689 3.706,-3.124 8.86474,-4.6875 14.624,-4.6875 5.394,10e-4 9.6558,0.5444 14.1406,1.875 v 16.3501 h -10.8032 v -9.523 l -0.2393,-0.0927 c -0.9081,-0.3462 -2.041,-0.3321 -2.998,-0.3365 -2.7856,-0.008 -4.77048,1.1573 -5.98873,2.9624 -1.22075,1.8033 -1.7115,4.2056 -1.71387,6.7408 -0.0025,3.3706 1.1425,6.0107 3.17137,7.7758 2.02774,1.7662 4.89653,2.6514 8.29833,2.6514 3.479,0 6.2207,-0.7827 8.1714,-1.8101 v 8.8155 c -3.2129,0.7851 -5.6577,1.2661 -12.0386,1.2685 h -0.002 c -5.55672,0 -10.72272,-1.5014 -14.47997,-4.4693"
       style="fill:#2056ae;fill-opacity:1;fill-rule:nonzero;stroke:none"
       id="path44" /></g></svg>
