<?xml version="1.0" encoding="UTF-8" standalone="no"?>
<svg
   xmlns:dc="http://purl.org/dc/elements/1.1/"
   xmlns:cc="http://creativecommons.org/ns#"
   xmlns:rdf="http://www.w3.org/1999/02/22-rdf-syntax-ns#"
   xmlns:svg="http://www.w3.org/2000/svg"
   xmlns="http://www.w3.org/2000/svg"
   xmlns:sodipodi="http://sodipodi.sourceforge.net/DTD/sodipodi-0.dtd"
   xmlns:inkscape="http://www.inkscape.org/namespaces/inkscape"
   version="1.1"
   id="svg78"
   width="1368.6112"
   height="780.85645"
   viewBox="0 0 1368.6112 780.85644"
   sodipodi:docname="probnum_logo.svg"
   inkscape:version="1.0.1 (0767f8302a, 2020-10-17)">
  <metadata
     id="metadata84">
    <rdf:RDF>
      <cc:Work
         rdf:about="">
        <dc:format>image/svg+xml</dc:format>
        <dc:type
           rdf:resource="http://purl.org/dc/dcmitype/StillImage" />
        <dc:title></dc:title>
      </cc:Work>
    </rdf:RDF>
  </metadata>
  <defs
     id="defs82" />
  <sodipodi:namedview
     pagecolor="#ffffff"
     bordercolor="#666666"
     borderopacity="1"
     objecttolerance="10"
     gridtolerance="10"
     guidetolerance="10"
     inkscape:pageopacity="0"
     inkscape:pageshadow="2"
     inkscape:window-width="1874"
     inkscape:window-height="1032"
     id="namedview80"
     showgrid="false"
     inkscape:zoom="0.69397045"
     inkscape:cx="653.0029"
     inkscape:cy="319.48562"
     inkscape:window-x="46"
     inkscape:window-y="20"
     inkscape:window-maximized="1"
     inkscape:current-layer="layer1" />
  <g
     inkscape:groupmode="layer"
     id="layer3"
     inkscape:label="Function"
     style="display:inline"
     transform="translate(-99.999997,-40)">
    <path
       style="fill:#000000;stroke-width:1.31813"
       d="m 162.99479,820.40878 c -30.26963,-2.65141 -53.62739,-18.19832 -60.69772,-40.40037 -9.919087,-31.14765 13.65894,-63.4253 44.34421,-60.70593 11.42792,1.01277 17.58941,4.39597 22.65074,13.20119 3.28919,5.7222 4.0749,9.81007 3.45216,15.70715 -1.99333,18.87569 -15.05793,33.72453 -32.79169,37.27007 -11.61318,2.32184 -11.41228,2.22132 -9.33269,4.67028 5.68707,6.69716 22.19564,13.16466 36.65711,14.36102 14.7748,1.22229 22.96433,-1.80322 33.89543,-12.52221 13.53525,-13.27263 22.89594,-33.68799 31.82923,-69.4186 5.30813,-21.23101 22.72531,-104.72403 36.73501,-176.09728 14.49435,-73.84221 47.3863,-244.63127 47.3863,-246.04985 0,-0.5974 -16.05,-1.09482 -35.66667,-1.1054 -40.69812,-0.0219 -42.07949,-0.29079 -42.75737,-8.32282 -0.55682,-6.59741 1.75405,-11.77229 6.18082,-13.84112 2.5054,-1.17089 14.73905,-1.93222 40.85023,-2.44947 l 37.27368,-0.778 2.4418,-13.68264 c 10.43863,-58.49293 21.64252,-107.56997 29.76195,-130.36773 15.95325,-44.793581 42.70601,-73.931794 78.58222,-85.589173 9.39302,-3.052104 12.73635,-3.461641 28,-3.429823 15.06002,0.03139 18.7323,0.485428 28,3.461868 32.52816,10.446833 48.506,31.720426 44.51682,59.271628 -3.5759,24.69678 -26.34542,42.35188 -49.12732,38.0925 -18.53586,-3.46553 -26.94792,-18.93978 -20.75559,-38.18055 4.75504,-14.774806 17.09582,-26.303472 36.03276,-30.004002 l 6.66667,-1.693583 -5.83548,-3.634225 c -3.20951,-1.998822 -9.80951,-5.160967 -14.66667,-7.026986 -7.55307,-2.901734 -10.52495,-4.513781 -23.06895,-4.5739 -13.78355,-0.06606 -16.47183,1.885422 -23.08051,5.463874 -8.96487,4.854274 -16.54496,13.545359 -21.74698,23.102905 C 391.59306,134.98511 389.97365,147.00378 379.93137,250.224 l -2.34451,24.09815 44.29539,0.4542 c 42.06151,0.4313 44.44384,0.58554 47.23913,3.05848 2.47439,2.18905 2.84499,3.60889 2.32432,8.90474 -0.40558,4.12531 -1.61613,7.27511 -3.50646,9.12369 -2.83422,2.77158 -3.73662,2.81321 -49.30028,3.21097 l -46.41326,0.38772 -3.02314,16.5527 c -5.40004,29.56701 -26.41212,139.21789 -35.38463,184.65372 -22.37581,113.30874 -33.25523,159.03415 -46.7562,196.51303 -22.60748,62.75868 -49.68621,100.87786 -82.95884,116.7826 -12.39996,5.92733 -24.80771,7.87257 -41.1081,6.44478 z"
       id="path149"
       sodipodi:nodetypes="sssssssssssssssccssssssssccsssssscssssccsssss" />
  </g>
  <g
     inkscape:groupmode="layer"
     id="layer4"
     inkscape:label="Parentheses"
     style="display:inline"
     transform="translate(-99.999997,-40)">
    <path
       style="display:inline;fill:#000000;stroke-width:1.15685"
       d="m 1309.238,818.05657 c -1.5688,-3.18925 -0.5903,-4.78745 10.3197,-16.85633 57.4811,-63.58641 93.4034,-146.30746 108.8911,-250.75209 10.5132,-70.89738 11.1009,-158.93199 1.5399,-230.6882 -11.5529,-86.70571 -38.1935,-161.58588 -78.278,-220.019396 -9.2872,-13.538554 -18.3309,-25.110071 -31.3516,-40.114947 -5.9773,-6.888252 -11.201,-13.440226 -11.6083,-14.55994 -0.7812,-2.147231 1.867,-5.073333 4.183,-5.065652 4.4409,0.01473 23.5917,16.194811 37.7143,32.31876 41.8296,47.757285 68.1801,95.190085 89.1361,160.451235 14.9555,46.57451 23.894,93.84164 27.6353,146.13495 1.5953,22.29968 1.5873,80.6042 -0.014,102.72183 -6.9339,95.76187 -34.7374,187.21987 -76.7476,252.45743 -22.5745,35.05583 -53.0494,70.35341 -71.3686,82.66272 -5.7796,3.88353 -8.6038,4.25153 -10.051,1.30963 z"
       id="path147" />
    <path
       style="display:inline;fill:#000000;stroke-width:1.15505"
       d="m 708.24582,817.33815 c -11.165,-7.11205 -34.63955,-31.65339 -51.76537,-54.11786 -49.7678,-65.28195 -83.07849,-155.42089 -93.97147,-254.28742 -5.74757,-52.16598 -5.07023,-123.26723 1.64608,-172.78874 2.35507,-17.36471 8.02698,-46.99743 12.37088,-64.63123 20.35575,-82.63297 54.50073,-149.70633 103.03666,-202.402094 12.88781,-13.992389 24.72598,-24.730763 30.88911,-28.019475 4.03199,-2.151515 8.16579,-0.985672 8.16579,2.302977 0,0.958655 -4.18667,6.607099 -9.3037,12.552095 -24.2105,28.127886 -35.5779,43.804984 -50.41277,69.525787 -30.03986,52.08324 -51.06783,117.30122 -60.86943,188.78577 -13.31632,97.1179 -9.08964,205.83246 11.31477,291.02697 19.09113,79.71125 49.53501,140.6327 97.65319,195.41445 6.38987,7.27476 11.61794,13.95595 11.61794,14.8471 0,2.16718 -2.29433,4.46099 -4.45449,4.4535 -0.96139,-0.004 -3.62412,-1.20116 -5.91719,-2.66183 z"
       id="path120" />
  </g>
  <g
     inkscape:groupmode="layer"
     id="layer2"
     inkscape:label="Gaussian Fill"
     style="display:inline"
     transform="translate(-99.999997,-40)">
    <path
       style="display:inline;fill:#cbe4e3;stroke-width:1.33115"
       d="m 757.29616,748.27819 c 28.10107,-19.935 56.7319,-59.47516 78.87128,-108.92394 27.15176,-60.64403 47.3542,-126.09246 90.74533,-293.98138 42.65724,-165.04945 58.81424,-215.73483 79.01003,-247.8596 6.3673,-10.12834 9.7586,-13.06458 12.9249,-11.19079 3.7383,2.21233 12.1048,15.48698 18.5387,29.41482 18.5612,40.17935 31.7341,84.11479 72.5446,241.95545 41.4719,160.39951 62.7004,227.82559 90.7203,288.14829 16.6111,35.76126 31.4298,58.74244 51.7086,80.19047 8.9559,9.47219 19.9904,19.79009 24.5213,22.92866 l 8.238,5.70648 H 1016.7051 748.29079 Z"
       id="path132"
       sodipodi:nodetypes="ssssscsssscccs" />
  </g>
  <g
     inkscape:groupmode="layer"
     id="layer1"
     inkscape:label="Gaussian Edge"
     style="display:inline"
     transform="translate(-99.999997,-40)">
    <path
       style="fill:#007c79;stroke-width:1.29322"
       d="m 701.68048,772.51398 c -1.66948,-1.96039 -7.56097,-32.84804 -7.56097,-34.91177 0,-0.99915 0.83774,-2.14011 2.30146,-2.65678 4.59873,-1.62328 27.30825,-9.04552 37.37136,-15.07182 13.66286,-8.182 34.63974,-30.47616 46.43602,-49.35204 21.66246,-34.66331 39.76848,-78.47369 61.65673,-149.18825 12.84248,-41.49037 21.56822,-73.31811 44.18934,-161.18357 40.98158,-159.18156 53.79625,-202.01229 73.24739,-244.81642 19.3815,-42.650639 40.90239,-59.762891 65.42449,-52.021876 17.9556,5.668109 33.8903,26.798206 49.9358,66.216806 15.758,38.7128 30.1489,87.68405 60.8705,207.1384 29.8812,116.18723 45.442,172.27209 58.8193,211.99999 19.0129,56.46452 33.55,89.89152 52.4767,120.66666 12.2546,19.92639 32.7949,41.92514 47.1895,50.5403 10.0713,6.0277 32.1866,13.04041 36.9095,14.78112 3.2234,1.18805 3.475,-0.66908 -0.755,21.34525 -4.021,20.92652 -1.956,19.66508 -21.7073,13.26029 -16.8174,-5.45345 -27.2587,-10.67757 -41.5687,-20.79821 -40.0872,-28.35152 -70.8848,-80.05774 -103.0176,-172.95656 -16.9366,-48.96511 -31.9543,-102.03274 -61.5524,-217.50551 -19.8647,-77.49981 -27.0005,-104.2865 -36.5843,-137.33333 -16.5756,-57.15606 -33.5792,-99.33513 -45.4665,-112.78428 l -6.3778,-7.21572 -6.1306,6.93003 c -11.09849,12.54568 -25.87439,47.35109 -40.64309,95.73664 -9.65544,31.63341 -20.53627,71.83616 -40.4169,149.33333 -21.61008,84.23878 -29.71888,114.49807 -41.62581,155.33333 -43.71228,149.91295 -83.11314,220.10151 -140.77826,250.78192 -16.2697,8.6562 -40.58776,16.1453 -42.64286,13.73207 z"
       id="path122"
       sodipodi:nodetypes="sssssssssssssssssssssscssssss" />
  </g>
</svg>
