<?xml version="1.0" encoding="UTF-8" standalone="no"?>
<!-- Created with Inkscape (http://www.inkscape.org/) -->

<svg
   xmlns:dc="http://purl.org/dc/elements/1.1/"
   xmlns:cc="http://creativecommons.org/ns#"
   xmlns:rdf="http://www.w3.org/1999/02/22-rdf-syntax-ns#"
   xmlns:svg="http://www.w3.org/2000/svg"
   xmlns="http://www.w3.org/2000/svg"
   xmlns:sodipodi="http://sodipodi.sourceforge.net/DTD/sodipodi-0.dtd"
   xmlns:inkscape="http://www.inkscape.org/namespaces/inkscape"
   width="170.74124mm"
   height="30.354403mm"
   viewBox="0 0 170.74124 30.354403"
   version="1.1"
   id="svg868"
   inkscape:version="0.92.5 (2060ec1f9f, 2020-04-08)"
   sodipodi:docname="probnum_logo_dark_txtright.svg">
  <defs
     id="defs862" />
  <sodipodi:namedview
     id="base"
     pagecolor="#ffffff"
     bordercolor="#666666"
     borderopacity="1.0"
     inkscape:pageopacity="0.0"
     inkscape:pageshadow="2"
     inkscape:zoom="5.6"
     inkscape:cx="271.34398"
     inkscape:cy="27.636244"
     inkscape:document-units="mm"
     inkscape:current-layer="layer1"
     showgrid="false"
     inkscape:window-width="3840"
     inkscape:window-height="2123"
     inkscape:window-x="0"
     inkscape:window-y="0"
     inkscape:window-maximized="1" />
  <metadata
     id="metadata865">
    <rdf:RDF>
      <cc:Work
         rdf:about="">
        <dc:format>image/svg+xml</dc:format>
        <dc:type
           rdf:resource="http://purl.org/dc/dcmitype/StillImage" />
        <dc:title />
      </cc:Work>
    </rdf:RDF>
  </metadata>
  <g
     inkscape:label="Layer 1"
     inkscape:groupmode="layer"
     id="layer1"
     transform="translate(-19.799819,-79.776486)">
    <path
       inkscape:connector-curvature="0"
       id="path1464"
       style="font-style:normal;font-variant:normal;font-weight:500;font-stretch:normal;font-size:96px;line-height:1.25;font-family:Roboto;-inkscape-font-specification:'Roboto Medium';letter-spacing:0px;word-spacing:0px;fill:#002b36;fill-opacity:1;stroke:none;stroke-width:0.32126254"
       d="m 67.612972,101.68269 v 8.14701 H 63.818058 V 87.903536 h 8.387966 q 3.809971,0 5.888138,1.972754 2.093228,1.972751 2.093228,4.999648 0,3.177486 -2.093228,4.999649 -2.078167,1.807103 -5.888138,1.807103 z m 0,-10.722139 v 7.665122 h 4.593052 q 2.213698,0 3.177485,-1.039082 0.978849,-1.039085 0.978849,-2.680534 0,-1.536037 -0.978849,-2.740771 -0.963787,-1.204735 -3.177485,-1.204735 z" />
    <path
       inkscape:connector-curvature="0"
       id="path1466"
       style="font-style:normal;font-variant:normal;font-weight:500;font-stretch:normal;font-size:96px;line-height:1.25;font-family:Roboto;-inkscape-font-specification:'Roboto Medium';letter-spacing:0px;word-spacing:0px;fill:#002b36;fill-opacity:1;stroke:none;stroke-width:0.32126254"
       d="m 90.231862,96.758334 q -2.545,0 -3.403375,1.927576 V 109.8297 H 83.184165 V 93.53567 h 3.49373 l 0.09035,1.83722 q 1.29509,-2.138404 3.67444,-2.138404 0.737902,0 1.29509,0.195771 l -0.0301,3.448551 q -0.752959,-0.120474 -1.4758,-0.120474 z" />
    <path
       inkscape:connector-curvature="0"
       id="path1468"
       style="font-style:normal;font-variant:normal;font-weight:500;font-stretch:normal;font-size:96px;line-height:1.25;font-family:Roboto;-inkscape-font-specification:'Roboto Medium';letter-spacing:0px;word-spacing:0px;fill:#002b36;fill-opacity:1;stroke:none;stroke-width:0.32126254"
       d="m 92.806983,101.5321 q 0,-3.538913 2.00287,-5.918263 2.002873,-2.379351 5.556837,-2.379351 3.53891,0 5.52672,2.319114 2.00287,2.319114 2.06311,5.78273 v 0.51201 q 0,3.55396 -2.00287,5.91826 -1.98782,2.36429 -5.55684,2.36429 -3.584084,0 -5.586957,-2.36429 -2.00287,-2.3643 -2.00287,-5.91826 z m 3.644322,0.31624 q 0,2.19864 0.933669,3.77985 0.948727,1.56616 3.011836,1.56616 2.01793,0 2.9516,-1.56616 0.94873,-1.58121 0.94873,-3.77985 v -0.31624 q 0,-2.153468 -0.94873,-3.749741 -0.93367,-1.611331 -2.98172,-1.611331 -2.032989,0 -2.981716,1.611331 -0.933669,1.596273 -0.933669,3.749741 z" />
    <path
       inkscape:connector-curvature="0"
       id="path1470"
       style="font-style:normal;font-variant:normal;font-weight:500;font-stretch:normal;font-size:96px;line-height:1.25;font-family:Roboto;-inkscape-font-specification:'Roboto Medium';letter-spacing:0px;word-spacing:0px;fill:#002b36;fill-opacity:1;stroke:none;stroke-width:0.32126254"
       d="m 125.33481,101.84834 q 0,3.59914 -1.62639,5.94838 -1.61133,2.33417 -4.71352,2.33417 -2.84619,0 -4.47258,-2.07817 l -0.16565,1.77698 h -3.31302 V 86.698802 h 3.64432 v 8.403023 q 1.59628,-1.867339 4.27681,-1.867339 3.14737,0 4.7587,2.319114 1.61133,2.304056 1.61133,5.9785 z m -7.3037,-5.632136 q -2.33417,0 -3.34314,2.108285 v 6.686281 q 1.02403,2.12334 3.37326,2.12334 2.03299,0 2.83112,-1.52098 0.79814,-1.52097 0.79814,-4.08103 0,-2.153468 -0.78307,-3.73468 -0.78308,-1.581216 -2.87631,-1.581216 z" />
    <path
       inkscape:connector-curvature="0"
       id="path1472"
       style="font-style:normal;font-variant:normal;font-weight:500;font-stretch:normal;font-size:96px;line-height:1.25;font-family:Roboto;-inkscape-font-specification:'Roboto Medium';letter-spacing:0px;word-spacing:0px;fill:#28bab4;fill-opacity:1;stroke:none;stroke-width:0.32126254"
       d="M 146.16166,87.903536 V 109.8297 h -3.80997 L 132.56322,94.273571 V 109.8297 h -3.79491 V 87.903536 h 3.79491 l 9.81859,15.601314 V 87.903536 Z" />
    <path
       inkscape:connector-curvature="0"
       id="path1474"
       style="font-style:normal;font-variant:normal;font-weight:500;font-stretch:normal;font-size:96px;line-height:1.25;font-family:Roboto;-inkscape-font-specification:'Roboto Medium';letter-spacing:0px;word-spacing:0px;fill:#28bab4;fill-opacity:1;stroke:none;stroke-width:0.32126254"
       d="m 160.27211,109.8297 -0.0904,-1.59627 q -1.59627,1.89746 -4.57799,1.89746 -2.37935,0 -3.87021,-1.4005 -1.49086,-1.40051 -1.50592,-4.60811 V 93.53567 h 3.65938 v 10.55649 q 0,1.76192 0.76802,2.40947 0.78308,0.63248 1.82216,0.63248 2.6203,0 3.58409,-1.8824 V 93.53567 h 3.65938 v 16.29403 z" />
    <path
       inkscape:connector-curvature="0"
       id="path1476"
       style="font-style:normal;font-variant:normal;font-weight:500;font-stretch:normal;font-size:96px;line-height:1.25;font-family:Roboto;-inkscape-font-specification:'Roboto Medium';letter-spacing:0px;word-spacing:0px;fill:#28bab4;fill-opacity:1;stroke:none;stroke-width:0.32126254"
       d="m 174.23197,96.216204 q -2.21369,0 -3.13231,1.807102 V 109.8297 h -3.64432 V 93.53567 h 3.4335 l 0.10541,1.701689 q 1.73181,-2.002873 4.71352,-2.002873 3.23773,0 4.45752,2.484767 1.79205,-2.484767 5.01471,-2.484767 2.48476,0 3.91539,1.385445 1.43062,1.385444 1.44568,4.577991 V 109.8297 h -3.65938 V 99.258159 q 0,-1.807102 -0.79814,-2.424527 -0.78308,-0.617428 -2.1384,-0.617428 -1.24992,0 -2.04805,0.677665 -0.78308,0.677661 -1.08426,1.761922 V 109.8297 h -3.65938 V 99.288277 q 0,-1.716747 -0.78308,-2.394408 -0.78308,-0.677665 -2.13841,-0.677665 z" />
    <path
       sodipodi:nodetypes="cccccccccccccccccc"
       inkscape:connector-curvature="0"
       id="path1453"
       d="m 32.923567,86.163356 c -0.24928,0.0057 -0.40182,0.0483 -0.76843,0.332795 -0.99951,0.775695 -2.079568,2.950046 -3.617348,7.284826 -0.11593,0.326805 -0.28499,0.805495 -0.37569,1.063501 -1.4349,4.081666 -1.43565,4.083843 -1.89291,5.253942 -1.1142,2.9566 -2.53567,5.3443 -4.18889,7.71012 -0.38522,0.53885 -0.76327,0.94422 -1.1808,1.3839 -0.24429,0.25723 -0.54925,0.55795 -0.77308,0.73122 -0.10362,0.0802 -0.22453,0.15049 -0.3266,0.20722 h 26.246978 c -0.10207,-0.0567 -0.22299,-0.12702 -0.3266,-0.20722 -0.22383,-0.17327 -0.52879,-0.47399 -0.77308,-0.73122 -0.41754,-0.43968 -0.79558,-0.84505 -1.1808,-1.3839 -1.89354,-2.55087 -3.27714,-5.39752 -4.1889,-7.71012 -0.45725,-1.170099 -0.458,-1.172276 -1.8929,-5.253942 -0.0907,-0.258006 -0.25975,-0.736696 -0.37569,-1.063501 -1.53778,-4.33478 -2.61783,-6.509131 -3.61735,-7.284826 -0.36636,-0.284305 -0.51895,-0.32703 -0.76791,-0.332795 z"
       style="display:inline;opacity:1;fill:#28bab4;fill-opacity:1;stroke-width:0.07202484" />
    <path
       inkscape:connector-curvature="0"
       id="path1455"
       d="m 44.525957,79.776665 c -0.19305,0.0023 -0.26923,0.01777 -0.51573,0.436148 -0.58501,0.992963 -1.2171,3.752195 -2.11718,9.24388 -0.0679,0.414025 -0.16945,1.037831 -0.22635,1.38648 -0.0568,0.34865 -0.17922,1.09742 -0.27181,1.663981 -0.0926,0.566557 -0.23303,1.44033 -0.31213,1.941483 -0.41005,2.600217 -1.16634,6.518853 -1.62884,8.441863 -0.35265,1.46619 -0.9223,3.28496 -1.28571,4.10414 -0.16104,0.36299 -0.46831,0.93813 -0.68265,1.27796 -0.59924,0.95009 -1.38138,1.5558 -2.39933,1.80402 -0.0388,0.0136 -0.0769,0.0302 -0.11628,0.0543 h 19.26859 c -0.0978,-0.0568 -0.24121,-0.12321 -0.3085,-0.16019 -0.28364,-0.15586 -1.00587,-0.49826 -1.39837,-0.79375 -1.60632,-1.20933 -2.70357,-4.41378 -4.04471,-11.812719 -0.26764,-1.476523 -0.26808,-1.479005 -1.10795,-6.629569 -0.0531,-0.325575 -0.15234,-0.929132 -0.22014,-1.341519 -0.90007,-5.469964 -1.53164,-8.213888 -2.11666,-9.192722 -0.2465,-0.412417 -0.32321,-0.426047 -0.51625,-0.423746 z"
       style="display:inline;fill:#2944a5;fill-opacity:1;stroke-width:0.06189898" />
    <path
       id="path1457"
       d="m 39.895747,100.87615 c -0.16044,0.77297 -0.3131,1.47911 -0.44183,2.01435 -0.35265,1.46619 -0.9223,3.28496 -1.28571,4.10414 -0.16104,0.36299 -0.4683,0.93813 -0.68264,1.27796 -0.59924,0.95009 -1.38139,1.5558 -2.39934,1.80403 -0.0388,0.0136 -0.0769,0.0302 -0.11627,0.0543 h 11.07684 c -0.10207,-0.0567 -0.22297,-0.12703 -0.3266,-0.20723 -0.22383,-0.17326 -0.52878,-0.47398 -0.77307,-0.73122 -0.41755,-0.43967 -0.79559,-0.84505 -1.18081,-1.38389 -1.68678,-2.27235 -2.96617,-4.77723 -3.87057,-6.93239 z"
       style="display:inline;opacity:1;fill:#28bab4;fill-opacity:0.5098038;stroke-width:0.07202484"
       inkscape:connector-curvature="0" />
  </g>
</svg>
