<?xml version="1.0" encoding="UTF-8" standalone="no"?>
<!-- Created with Inkscape (http://www.inkscape.org/) -->

<svg
   xmlns:dc="http://purl.org/dc/elements/1.1/"
   xmlns:cc="http://creativecommons.org/ns#"
   xmlns:rdf="http://www.w3.org/1999/02/22-rdf-syntax-ns#"
   xmlns:svg="http://www.w3.org/2000/svg"
   xmlns="http://www.w3.org/2000/svg"
   xmlns:sodipodi="http://sodipodi.sourceforge.net/DTD/sodipodi-0.dtd"
   xmlns:inkscape="http://www.inkscape.org/namespaces/inkscape"
   width="126.72301mm"
   height="59.526478mm"
   viewBox="0 0 126.72301 59.526478"
   version="1.1"
   id="svg868"
   inkscape:version="0.92.5 (2060ec1f9f, 2020-04-08)"
   sodipodi:docname="probnum_logo_dark_txtbelow.svg">
  <defs
     id="defs862" />
  <sodipodi:namedview
     id="base"
     pagecolor="#ffffff"
     bordercolor="#666666"
     borderopacity="1.0"
     inkscape:pageopacity="0.0"
     inkscape:pageshadow="2"
     inkscape:zoom="3.959798"
     inkscape:cx="128.10836"
     inkscape:cy="6.3258929"
     inkscape:document-units="mm"
     inkscape:current-layer="g5405"
     showgrid="false"
     inkscape:window-width="3840"
     inkscape:window-height="2123"
     inkscape:window-x="0"
     inkscape:window-y="0"
     inkscape:window-maximized="1" />
  <metadata
     id="metadata865">
    <rdf:RDF>
      <cc:Work
         rdf:about="">
        <dc:format>image/svg+xml</dc:format>
        <dc:type
           rdf:resource="http://purl.org/dc/dcmitype/StillImage" />
        <dc:title />
      </cc:Work>
    </rdf:RDF>
  </metadata>
  <g
     inkscape:label="Layer 1"
     inkscape:groupmode="layer"
     id="layer1"
     transform="translate(-56.834924,-100.92724)">
    <path
       inkscape:connector-curvature="0"
       id="path5199"
       style="font-style:normal;font-variant:normal;font-weight:500;font-stretch:normal;font-size:96px;line-height:1.25;font-family:Roboto;-inkscape-font-specification:'Roboto Medium';letter-spacing:0px;word-spacing:0px;fill:#002b36;fill-opacity:1;stroke:none;stroke-width:0.32126254"
       d="m 60.629838,152.00551 v 8.14702 h -3.794914 v -21.92617 h 8.387966 q 3.809971,0 5.888138,1.97276 2.093228,1.97275 2.093228,4.99964 0,3.17749 -2.093228,4.99965 -2.078167,1.8071 -5.888138,1.8071 z m 0,-10.72213 v 7.66512 h 4.593052 q 2.213698,0 3.177485,-1.03908 0.978849,-1.03909 0.978849,-2.68054 0,-1.53603 -0.978849,-2.74077 -0.963787,-1.20473 -3.177485,-1.20473 z" />
    <path
       inkscape:connector-curvature="0"
       id="path5201"
       style="font-style:normal;font-variant:normal;font-weight:500;font-stretch:normal;font-size:96px;line-height:1.25;font-family:Roboto;-inkscape-font-specification:'Roboto Medium';letter-spacing:0px;word-spacing:0px;fill:#002b36;fill-opacity:1;stroke:none;stroke-width:0.32126254"
       d="m 83.248728,147.08116 q -2.545,0 -3.403375,1.92758 v 11.14379 H 76.201031 V 143.8585 h 3.49373 l 0.09036,1.83722 q 1.29509,-2.13841 3.67444,-2.13841 0.737902,0 1.29509,0.19577 l -0.0301,3.44855 q -0.752959,-0.12047 -1.4758,-0.12047 z" />
    <path
       inkscape:connector-curvature="0"
       id="path5203"
       style="font-style:normal;font-variant:normal;font-weight:500;font-stretch:normal;font-size:96px;line-height:1.25;font-family:Roboto;-inkscape-font-specification:'Roboto Medium';letter-spacing:0px;word-spacing:0px;fill:#002b36;fill-opacity:1;stroke:none;stroke-width:0.32126254"
       d="m 85.823849,151.85492 q 0,-3.53891 2.00287,-5.91826 2.002873,-2.37935 5.556839,-2.37935 3.538906,0 5.526718,2.31912 2.002874,2.31911 2.063114,5.78272 v 0.51201 q 0,3.55397 -2.002877,5.91826 -1.987812,2.36429 -5.556836,2.36429 -3.584085,0 -5.586958,-2.36429 -2.00287,-2.36429 -2.00287,-5.91826 z m 3.644322,0.31624 q 0,2.19864 0.933669,3.77986 0.948727,1.56615 3.011837,1.56615 2.01793,0 2.951599,-1.56615 0.948727,-1.58122 0.948727,-3.77986 v -0.31624 q 0,-2.15346 -0.948727,-3.74974 -0.933669,-1.61133 -2.981718,-1.61133 -2.032991,0 -2.981718,1.61133 -0.933669,1.59628 -0.933669,3.74974 z" />
    <path
       inkscape:connector-curvature="0"
       id="path5205"
       style="font-style:normal;font-variant:normal;font-weight:500;font-stretch:normal;font-size:96px;line-height:1.25;font-family:Roboto;-inkscape-font-specification:'Roboto Medium';letter-spacing:0px;word-spacing:0px;fill:#002b36;fill-opacity:1;stroke:none;stroke-width:0.32126254"
       d="m 118.35168,152.17116 q 0,3.59915 -1.62639,5.94838 -1.61133,2.33417 -4.71353,2.33417 -2.84618,0 -4.47257,-2.07816 l -0.16565,1.77698 h -3.31302 v -23.1309 h 3.64432 v 8.40302 q 1.59627,-1.86734 4.27681,-1.86734 3.14737,0 4.7587,2.31912 1.61133,2.30405 1.61133,5.97849 z m -7.3037,-5.63213 q -2.33418,0 -3.34314,2.10829 v 6.68627 q 1.02402,2.12335 3.37325,2.12335 2.033,0 2.83113,-1.52098 0.79814,-1.52098 0.79814,-4.08104 0,-2.15346 -0.78308,-3.73467 -0.78308,-1.58122 -2.8763,-1.58122 z" />
    <path
       inkscape:connector-curvature="0"
       id="path5207"
       style="font-style:normal;font-variant:normal;font-weight:500;font-stretch:normal;font-size:96px;line-height:1.25;font-family:Roboto;-inkscape-font-specification:'Roboto Medium';letter-spacing:0px;word-spacing:0px;fill:#28bab4;fill-opacity:1;stroke:none;stroke-width:0.32126254"
       d="m 139.17853,138.22636 v 21.92617 h -3.80997 l -9.78847,-15.55613 v 15.55613 h -3.79492 v -21.92617 h 3.79492 l 9.81858,15.60131 v -15.60131 z" />
    <path
       inkscape:connector-curvature="0"
       id="path5209"
       style="font-style:normal;font-variant:normal;font-weight:500;font-stretch:normal;font-size:96px;line-height:1.25;font-family:Roboto;-inkscape-font-specification:'Roboto Medium';letter-spacing:0px;word-spacing:0px;fill:#28bab4;fill-opacity:1;stroke:none;stroke-width:0.32126254"
       d="m 153.28898,160.15253 -0.0904,-1.59627 q -1.59628,1.89745 -4.578,1.89745 -2.37935,0 -3.87021,-1.4005 -1.49085,-1.4005 -1.50591,-4.60811 v -10.5866 h 3.65938 v 10.55648 q 0,1.76193 0.76801,2.40947 0.78308,0.63249 1.82217,0.63249 2.62029,0 3.58408,-1.8824 V 143.8585 h 3.65938 v 16.29403 z" />
    <path
       inkscape:connector-curvature="0"
       id="path5211"
       style="font-style:normal;font-variant:normal;font-weight:500;font-stretch:normal;font-size:96px;line-height:1.25;font-family:Roboto;-inkscape-font-specification:'Roboto Medium';letter-spacing:0px;word-spacing:0px;fill:#28bab4;fill-opacity:1;stroke:none;stroke-width:0.32126254"
       d="m 167.24884,146.53903 q -2.2137,0 -3.13231,1.8071 v 11.8064 h -3.64432 V 143.8585 h 3.43349 l 0.10542,1.70168 q 1.7318,-2.00287 4.71352,-2.00287 3.23773,0 4.45752,2.48477 1.79204,-2.48477 5.01471,-2.48477 2.48476,0 3.91538,1.38545 1.43062,1.38544 1.44568,4.57799 v 10.63178 h -3.65938 v -10.57155 q 0,-1.8071 -0.79813,-2.42452 -0.78308,-0.61743 -2.13841,-0.61743 -1.24991,0 -2.04805,0.67766 -0.78307,0.67767 -1.08426,1.76193 v 11.17391 h -3.65938 V 149.6111 q 0,-1.71674 -0.78308,-2.39441 -0.78307,-0.67766 -2.1384,-0.67766 z" />
    <g
       style="display:inline"
       id="g5405"
       transform="translate(14.725888,80.332292)">
      <path
         sodipodi:nodetypes="cccccccccccccccccc"
         inkscape:connector-curvature="0"
         id="path4699-5"
         d="m 102.77202,26.981816 c -0.24928,0.0057 -0.40182,0.0483 -0.76843,0.332795 -0.99951,0.775695 -2.079568,2.950046 -3.617348,7.284826 -0.11593,0.326805 -0.28499,0.805495 -0.37569,1.063501 -1.4349,4.081666 -1.43565,4.083843 -1.89291,5.253942 -1.1142,2.956602 -2.53567,5.3443 -4.18889,7.710124 -0.38522,0.538843 -0.76327,0.944219 -1.1808,1.383895 -0.24429,0.257234 -0.54925,0.557956 -0.77308,0.731221 -0.10362,0.0802 -0.22453,0.150493 -0.3266,0.207222 h 26.246978 c -0.10207,-0.05673 -0.22299,-0.127021 -0.3266,-0.207222 -0.22383,-0.173265 -0.52879,-0.473987 -0.77308,-0.731221 -0.41754,-0.439676 -0.79558,-0.845052 -1.1808,-1.383895 -1.89354,-2.550871 -3.27714,-5.397528 -4.1889,-7.710124 -0.45725,-1.170099 -0.458,-1.172276 -1.8929,-5.253942 -0.0907,-0.258006 -0.25975,-0.736696 -0.37569,-1.063501 -1.53778,-4.33478 -2.61783,-6.509131 -3.61735,-7.284826 -0.36636,-0.284305 -0.51895,-0.32703 -0.76791,-0.332795 z"
         style="display:inline;opacity:1;fill:#28bab4;fill-opacity:1;stroke-width:0.07202484" />
      <path
         inkscape:connector-curvature="0"
         id="path4699-6-6"
         d="m 114.37441,20.595125 c -0.19305,0.0023 -0.26923,0.01777 -0.51573,0.436148 -0.58501,0.992963 -1.2171,3.752195 -2.11718,9.24388 -0.0679,0.414025 -0.16945,1.037831 -0.22635,1.38648 -0.0568,0.34865 -0.17922,1.09742 -0.27181,1.663981 -0.0926,0.566557 -0.23303,1.44033 -0.31213,1.941483 -0.41005,2.600217 -1.16634,6.518852 -1.62884,8.441862 -0.35265,1.466194 -0.9223,3.284961 -1.28571,4.104142 -0.16104,0.36299 -0.46831,0.93813 -0.68265,1.277958 -0.59924,0.95009 -1.38138,1.555801 -2.39933,1.804025 -0.0388,0.01357 -0.0769,0.03018 -0.11628,0.05426 h 19.26859 c -0.0978,-0.0568 -0.24121,-0.123216 -0.3085,-0.160199 -0.28364,-0.155858 -1.00587,-0.498258 -1.39837,-0.79375 -1.60632,-1.209321 -2.70357,-4.413776 -4.04471,-11.812714 -0.26764,-1.476523 -0.26808,-1.479005 -1.10795,-6.629569 -0.0531,-0.325575 -0.15234,-0.929132 -0.22014,-1.341519 -0.90007,-5.469964 -1.53164,-8.213888 -2.11666,-9.192722 -0.2465,-0.412417 -0.32321,-0.426047 -0.51625,-0.423746 z"
         style="display:inline;fill:#2944a5;fill-opacity:1;stroke-width:0.06189898" />
      <path
         id="path4699"
         d="m 109.7442,41.694613 c -0.16044,0.772972 -0.3131,1.479111 -0.44183,2.014347 -0.35265,1.466194 -0.9223,3.284961 -1.28571,4.104142 -0.16104,0.36299 -0.4683,0.938131 -0.68264,1.277959 -0.59924,0.95009 -1.38139,1.5558 -2.39934,1.804024 -0.0388,0.01357 -0.0769,0.03018 -0.11627,0.05426 h 11.07684 c -0.10207,-0.05673 -0.22297,-0.127021 -0.3266,-0.207221 -0.22383,-0.173265 -0.52878,-0.473988 -0.77307,-0.731221 -0.41755,-0.439677 -0.79559,-0.845053 -1.18081,-1.383895 -1.68678,-2.272343 -2.96617,-4.77723 -3.87057,-6.932393 z"
         style="display:inline;opacity:1;fill:#28bab4;fill-opacity:0.5098038;stroke-width:0.07202484"
         inkscape:connector-curvature="0" />
    </g>
  </g>
</svg>
