<?xml version="1.0" encoding="UTF-8" standalone="no"?>
<!-- Created with Inkscape (http://www.inkscape.org/) -->

<svg
   xmlns:dc="http://purl.org/dc/elements/1.1/"
   xmlns:cc="http://creativecommons.org/ns#"
   xmlns:rdf="http://www.w3.org/1999/02/22-rdf-syntax-ns#"
   xmlns:svg="http://www.w3.org/2000/svg"
   xmlns="http://www.w3.org/2000/svg"
   xmlns:sodipodi="http://sodipodi.sourceforge.net/DTD/sodipodi-0.dtd"
   xmlns:inkscape="http://www.inkscape.org/namespaces/inkscape"
   width="34.438717mm"
   height="30.354399mm"
   viewBox="0 0 34.438717 30.354399"
   version="1.1"
   id="svg877"
   inkscape:version="0.92.5 (2060ec1f9f, 2020-04-08)"
   sodipodi:docname="probnum_logo.svg">
  <defs
     id="defs871" />
  <sodipodi:namedview
     id="base"
     pagecolor="#ffffff"
     bordercolor="#666666"
     borderopacity="1.0"
     inkscape:pageopacity="0"
     inkscape:pageshadow="2"
     inkscape:zoom="11.2"
     inkscape:cx="65.951844"
     inkscape:cy="57.324669"
     inkscape:document-units="mm"
     inkscape:current-layer="layer1"
     showgrid="false"
     inkscape:window-width="3748"
     inkscape:window-height="2064"
     inkscape:window-x="92"
     inkscape:window-y="40"
     inkscape:window-maximized="1" />
  <metadata
     id="metadata874">
    <rdf:RDF>
      <cc:Work
         rdf:about="">
        <dc:format>image/svg+xml</dc:format>
        <dc:type
           rdf:resource="http://purl.org/dc/dcmitype/StillImage" />
        <dc:title></dc:title>
      </cc:Work>
    </rdf:RDF>
  </metadata>
  <g
     inkscape:label="Layer 1"
     inkscape:groupmode="layer"
     id="layer1"
     transform="translate(-45.524689,-104.92994)">
    <path
       sodipodi:nodetypes="cccccccccccccccccc"
       inkscape:connector-curvature="0"
       id="path1432"
       d="m 58.648437,111.31681 c -0.24928,0.006 -0.40182,0.0483 -0.76843,0.3328 -0.99951,0.77569 -2.079568,2.95004 -3.617348,7.28482 -0.11593,0.32681 -0.28499,0.8055 -0.37569,1.06351 -1.4349,4.08166 -1.43565,4.08384 -1.89291,5.25394 -1.1142,2.9566 -2.53567,5.3443 -4.18889,7.71012 -0.38522,0.53884 -0.76327,0.94422 -1.1808,1.3839 -0.24429,0.25723 -0.54925,0.55795 -0.77308,0.73122 -0.10362,0.0802 -0.22453,0.15049 -0.3266,0.20722 h 26.246978 c -0.10207,-0.0567 -0.22299,-0.12702 -0.3266,-0.20722 -0.22383,-0.17327 -0.52879,-0.47399 -0.77308,-0.73122 -0.41754,-0.43968 -0.79558,-0.84506 -1.1808,-1.3839 -1.89354,-2.55087 -3.27714,-5.39753 -4.1889,-7.71012 -0.45725,-1.1701 -0.458,-1.17228 -1.8929,-5.25394 -0.0907,-0.25801 -0.25975,-0.7367 -0.37569,-1.06351 -1.53778,-4.33478 -2.61783,-6.50913 -3.61735,-7.28482 -0.36636,-0.28431 -0.51895,-0.32703 -0.76791,-0.3328 z"
       style="display:inline;opacity:1;fill:#28bab4;fill-opacity:1;stroke-width:0.07202484" />
    <path
       inkscape:connector-curvature="0"
       id="path1434"
       d="m 70.250827,104.93012 c -0.19305,0.002 -0.26923,0.0178 -0.51573,0.43615 -0.58501,0.99296 -1.2171,3.7522 -2.11718,9.24388 -0.0679,0.41403 -0.16945,1.03783 -0.22635,1.38648 -0.0568,0.34865 -0.17922,1.09742 -0.27181,1.66398 -0.0926,0.56656 -0.23303,1.44033 -0.31213,1.94148 -0.41005,2.60022 -1.16634,6.51886 -1.62884,8.44187 -0.35265,1.46619 -0.9223,3.28496 -1.28571,4.10414 -0.16104,0.36299 -0.46831,0.93813 -0.68265,1.27796 -0.59924,0.95009 -1.38138,1.5558 -2.39933,1.80402 -0.0388,0.0136 -0.0769,0.0302 -0.11628,0.0543 h 19.26859 c -0.0978,-0.0568 -0.24121,-0.12322 -0.3085,-0.1602 -0.28364,-0.15586 -1.00587,-0.49826 -1.39837,-0.79375 -1.60632,-1.20932 -2.70357,-4.41377 -4.04471,-11.81271 -0.26764,-1.47652 -0.26808,-1.47901 -1.10795,-6.62957 -0.0531,-0.32558 -0.15234,-0.92913 -0.22014,-1.34152 -0.90007,-5.46996 -1.53164,-8.21389 -2.11666,-9.19272 -0.2465,-0.41242 -0.32321,-0.42605 -0.51625,-0.42375 z"
       style="display:inline;fill:#2944a5;fill-opacity:1;stroke-width:0.06189898" />
    <path
       id="path1436"
       d="m 65.620617,126.02961 c -0.16044,0.77297 -0.3131,1.47911 -0.44183,2.01435 -0.35265,1.46619 -0.9223,3.28496 -1.28571,4.10414 -0.16104,0.36299 -0.4683,0.93813 -0.68264,1.27796 -0.59924,0.95009 -1.38139,1.5558 -2.39934,1.80402 -0.0388,0.0136 -0.0769,0.0302 -0.11627,0.0543 h 11.07684 c -0.10207,-0.0567 -0.22297,-0.12702 -0.3266,-0.20722 -0.22383,-0.17326 -0.52878,-0.47399 -0.77307,-0.73122 -0.41755,-0.43968 -0.79559,-0.84505 -1.18081,-1.3839 -1.68678,-2.27234 -2.96617,-4.77723 -3.87057,-6.93239 z"
       style="display:inline;opacity:1;fill:#28bab4;fill-opacity:0.5098038;stroke-width:0.07202484"
       inkscape:connector-curvature="0" />
  </g>
</svg>
