<?xml version="1.0" encoding="UTF-8" standalone="no"?>
<!-- Created with Inkscape (http://www.inkscape.org/) -->

<svg
   xmlns:dc="http://purl.org/dc/elements/1.1/"
   xmlns:cc="http://creativecommons.org/ns#"
   xmlns:rdf="http://www.w3.org/1999/02/22-rdf-syntax-ns#"
   xmlns:svg="http://www.w3.org/2000/svg"
   xmlns="http://www.w3.org/2000/svg"
   xmlns:sodipodi="http://sodipodi.sourceforge.net/DTD/sodipodi-0.dtd"
   xmlns:inkscape="http://www.inkscape.org/namespaces/inkscape"
   version="1.1"
   id="svg2"
   xml:space="preserve"
   width="350.91571"
   height="352.11835"
   viewBox="0 0 350.91571 352.11835"
   sodipodi:docname="dirichlet_problem.svg"
   inkscape:version="0.92.5 (2060ec1f9f, 2020-04-08)"><metadata
     id="metadata8"><rdf:RDF><cc:Work
         rdf:about=""><dc:format>image/svg+xml</dc:format><dc:type
           rdf:resource="http://purl.org/dc/dcmitype/StillImage" /><dc:title /></cc:Work></rdf:RDF></metadata><defs
     id="defs6"><clipPath
       clipPathUnits="userSpaceOnUse"
       id="clipPath20"><path
         d="M 0,0 H 263.18678 V 264.08877 H 0 Z"
         id="path18"
         inkscape:connector-curvature="0" /></clipPath><clipPath
       clipPathUnits="userSpaceOnUse"
       id="clipPath30"><path
         d="M 0,0 H 263.18678 V 264.08877 H 0 Z"
         id="path28"
         inkscape:connector-curvature="0" /></clipPath><clipPath
       clipPathUnits="userSpaceOnUse"
       id="clipPath40"><path
         d="M 0,0 H 263.18678 V 264.08877 H 0 Z"
         id="path38"
         inkscape:connector-curvature="0" /></clipPath><clipPath
       clipPathUnits="userSpaceOnUse"
       id="clipPath50"><path
         d="M 0,0 H 263.18678 V 264.08877 H 0 Z"
         id="path48"
         inkscape:connector-curvature="0" /></clipPath><clipPath
       clipPathUnits="userSpaceOnUse"
       id="clipPath60"><path
         d="M 0,0 H 263.18678 V 264.08877 H 0 Z"
         id="path58"
         inkscape:connector-curvature="0" /></clipPath><clipPath
       clipPathUnits="userSpaceOnUse"
       id="clipPath70"><path
         d="M 0,0 H 263.18678 V 264.08877 H 0 Z"
         id="path68"
         inkscape:connector-curvature="0" /></clipPath><clipPath
       clipPathUnits="userSpaceOnUse"
       id="clipPath80"><path
         d="M 0,0 H 263.18678 V 264.08877 H 0 Z"
         id="path78"
         inkscape:connector-curvature="0" /></clipPath><clipPath
       clipPathUnits="userSpaceOnUse"
       id="clipPath90"><path
         d="M 0,0 H 263.18678 V 264.08877 H 0 Z"
         id="path88"
         inkscape:connector-curvature="0" /></clipPath><clipPath
       clipPathUnits="userSpaceOnUse"
       id="clipPath100"><path
         d="M 0,0 H 263.18678 V 264.08877 H 0 Z"
         id="path98"
         inkscape:connector-curvature="0" /></clipPath></defs><sodipodi:namedview
     pagecolor="#ffffff"
     bordercolor="#666666"
     borderopacity="1"
     objecttolerance="10"
     gridtolerance="10"
     guidetolerance="10"
     inkscape:pageopacity="0"
     inkscape:pageshadow="2"
     inkscape:window-width="2185"
     inkscape:window-height="1618"
     id="namedview4"
     showgrid="false"
     inkscape:zoom="2.4583333"
     inkscape:cx="89.03136"
     inkscape:cy="185.13074"
     inkscape:window-x="892"
     inkscape:window-y="160"
     inkscape:window-maximized="0"
     inkscape:current-layer="g96" /><g
     id="g10"
     inkscape:groupmode="layer"
     inkscape:label="PDE_solution"
     transform="matrix(1.3333333,0,0,-1.3333333,0,352.11835)"><g
       id="g914"
       style="opacity:1"><g
         id="g14"
         style=""><g
           clip-path="url(#clipPath20)"
           id="g16"
           style=""><path
             inkscape:connector-curvature="0"
             id="path22"
             style="fill:#48186a;fill-opacity:1;fill-rule:nonzero;stroke:none"
             d="m 247.78843,73.83477 -18.19122,-14.16027 -3.37169,-8.502855 -1.79991,-10.47177 10.82293,9.963212 m -23.85613,184.723723 12.27609,-24.92765 5.97373,-11.1047 11.8277,-21.4507 5.17714,-13.29018 16.53969,-32.56919 1e-5,-1e-5 v 0 -3e-5 l 10e-6,4e-5 -7.17905,43.02168 -20.75919,38.35962 M 0,136.5984 l 5.530811,12.74475 1.354731,3.84102 3.304184,7.85855 11.903701,25.70753 4.011394,8.30822 1.454002,17.25937 L 14.162273,195.10596 0,153.85266" /></g></g><g
         id="g24"
         style=""><g
           clip-path="url(#clipPath30)"
           id="g26"
           style=""><path
             inkscape:connector-curvature="0"
             id="path32"
             style="fill:#424086;fill-opacity:1;fill-rule:nonzero;stroke:none"
             d="m 117.73644,0.509481 -35.394938,11.965906 -2.967135,1.291109 -2.388053,-0.15171 -1.499895,-1.613946 1.980016,-1.293608 m 146.959175,29.992643 1.79991,10.47177 3.37169,8.502855 18.19122,14.16027 8.2193,15.187934 7.17904,43.021646 v 3e-5 0 l -1e-5,1e-5 -16.53969,32.56919 -5.17714,13.29018 -11.8277,21.4507 -5.97373,11.1047 -12.27609,24.92765 -8.23361,7.57957 -4.60351,2.01928 -1.73874,-5.26868 4.1162,-9.8673 11.02646,-22.39015 12.01414,-22.33335 2.35244,-4.26638 10.5702,-27.13466 4.95224,-9.75173 3.99876,-16.18318 0.81004,-13.92683 1.513,-19.27299 -2.67361,-7.587635 L 223.2962,69.721856 216.16522,51.738667 212.35848,29.591301 M 27.558823,212.31784 26.104821,195.05847 22.093427,186.75025 10.189726,161.04272 6.885542,153.18417 5.530811,149.34315 0,136.5984 v -26.36229 l 0.820383,-2.3897 1.188275,2.05221 0.737301,1.66503 12.837961,29.58276 3.817163,10.82266 9.310051,22.1427 1.76354,3.80858 8.250436,17.08793 2.740019,32.52475 0.978454,1.53155 33.331131,9.94041 10.6674,6.06794 33.231136,18.79516 0.15258,0.10772 0.0168,0.10515 -0.0943,0.008 -42.281905,-10.70723 -36.514319,-23.85599" /></g></g><g
         id="g34"
         style=""><g
           clip-path="url(#clipPath40)"
           id="g36"
           style=""><path
             inkscape:connector-curvature="0"
             id="path42"
             style="fill:#33638d;fill-opacity:1;fill-rule:nonzero;stroke:none"
             d="m 75.486419,12.00084 1.499895,1.613946 2.388053,0.15171 2.967135,-1.291109 L 117.73644,0.509481 119.74834,0 l 7.15613,0.592974 -1.55281,7.472399 -7.81996,2.914233 -20.34791,6.878984 -12.000667,5.221929 -9.658549,-0.613596 -6.066372,-6.527652 m 142.900278,13.65203 3.80674,22.147366 7.13098,17.983189 22.20022,17.280919 2.67361,7.587635 -1.513,19.27299 -0.81004,13.92683 -3.99876,16.18318 -4.95224,9.75173 -10.5702,27.13466 -2.35244,4.26638 -12.01414,22.33335 -11.02646,22.39015 -4.1162,9.8673 1.73874,5.26868 -6.98906,3.06569 -4.3785,-13.26761 10.36544,-24.84787 2.69675,-5.47597 4.06805,-7.56219 7.00578,-21.32919 4.1116,-11.19678 7.44779,-17.84389 2.43745,-13.20627 2.8366,-11.71038 0.86028,-12.85399 -0.9029,-6.56848 -6.23807,-14.737587 -1.885,-5.349574 -2.9963,-2.332356 -10.89028,-27.463525 -2.50857,-14.594658 -3.62301,-14.268986 1.37015,-3.115916 1.81531,0.79627 m -83.31613,242.958562 -0.0168,-0.10515 -0.15258,-0.10772 -33.231136,-18.79516 -10.6674,-6.06794 -33.331131,-9.94041 -0.978454,-1.53155 -2.740019,-32.52475 -8.250436,-17.08793 -1.76354,-3.80858 -9.310051,-22.1427 -3.817163,-10.82266 -12.837961,-29.58276 -0.737301,-1.66503 -1.188275,-2.05221 5.1458,-14.989198 8.641655,14.924508 5.361972,12.10888 5.667218,13.05907 3.529968,10.00839 3.520927,5.18439 1.956096,5.64462 6.77954,14.22062 8.601006,22.63218 1.565255,2.83896 9.8907,13.54998 8.617426,13.48862 3.628639,1.08218 23.582194,13.41427 15.537591,8.78788 14.02601,9.90245 1.54821,9.66596" /></g></g><g
         id="g44"
         style=""><g
           clip-path="url(#clipPath50)"
           id="g46"
           style=""><path
             inkscape:connector-curvature="0"
             id="path52"
             style="fill:#26828e;fill-opacity:1;fill-rule:nonzero;stroke:none"
             d="m 69.458202,15.939271 6.066372,6.527652 9.658549,0.613596 12.000667,-5.221929 20.34791,-6.878984 7.81996,-2.914233 1.55281,-7.472399 7.27553,0.602868 -3.13153,15.069464 -15.77038,5.877084 -3.25201,1.099402 -21.034201,9.15275 L 74.062833,31.319061 63.429985,19.877702 m 137.913505,0.448426 -1.37015,3.115916 3.62301,14.268986 2.50857,14.594658 10.89028,27.463525 2.9963,2.332356 1.885,5.349574 6.23807,14.737587 0.9029,6.56848 -0.86028,12.85399 -2.8366,11.71038 -2.43745,13.20627 -7.44779,17.84389 -4.1116,11.19678 -7.00578,21.32919 -4.06805,7.56219 -2.69675,5.47597 -10.36544,24.84787 4.3785,13.26761 -6.98906,3.06568 -7.01826,-21.26653 4.83927,-11.60063 2.19339,-22.92757 7.81566,-15.70832 3.96141,-12.06057 8.72947,-23.77229 0.43642,-1.99024 2.2597,-21.83404 -0.53456,-13.44147 -0.81143,-5.90306 -1.95047,-4.608035 -3.98645,-11.715513 -6.39944,-16.897311 -3.20323,-17.091953 -4.34072,-17.095642 7.13614,-16.228685 m -65.28348,246.394999 -1.54821,-9.66596 -14.02601,-9.90245 -15.537591,-8.78788 -23.582194,-13.41427 -3.628639,-1.08218 -8.617426,-13.48862 -9.8907,-13.54998 -1.565255,-2.83896 -8.601006,-22.63218 -6.77954,-14.22062 -1.956096,-5.64462 -3.520927,-5.18439 -3.529968,-10.00839 -5.667218,-13.05907 -5.361972,-12.10888 -8.641655,-14.924508 1.114953,-3.247749 3.072679,-8.950407 10.360641,7.201081 6.620951,14.041113 7.866313,19.12059 2.590957,3.51089 1.298221,3.65688 8.256198,12.15683 5.214746,15.04795 2.048239,2.77463 3.72721,8.01236 8.136517,14.75749 4.337323,5.94201 13.773497,15.97216 20.704872,18.14889 3.2774,2.28777 3.35221,4.4697 22.19983,15.67321 3.07956,19.22677" /></g></g><g
         id="g54"
         style=""><g
           clip-path="url(#clipPath60)"
           id="g56"
           style=""><path
             inkscape:connector-curvature="0"
             id="path62"
             style="fill:#1fa088;fill-opacity:1;fill-rule:nonzero;stroke:none"
             d="m 63.429985,19.877702 10.632848,11.441359 16.929046,1.075481 21.034201,-9.15275 3.25201,-1.099402 15.77038,-5.877084 3.13153,-15.069464 7.27552,0.602867 -4.71024,22.666529 -6.15894,2.29523 -0.0888,11.62378 -14.3654,5.41059 -16.830761,0.542949 -3.514198,0.232619 -10.284072,-3.579558 -12.902036,-0.81965 -6.141275,-6.608251 -9.561609,-9.417823 2.311066,-1.509895 m 134.494795,-5.660058 -7.13614,16.228685 4.34072,17.095642 3.20323,17.091953 6.39944,16.897311 3.98645,11.715513 1.95047,4.608035 0.81143,5.90306 0.53456,13.44147 -2.2597,21.83404 -0.43642,1.99024 -8.72947,23.77229 -3.96141,12.06057 -7.81566,15.70832 -2.19339,22.92757 -4.83927,11.60063 7.01826,21.26653 -6.98905,3.06569 -6.39956,-19.39175 -29.16323,4.98696 3.55109,22.17067 -8.57792,0.71078 -3.07956,-19.22677 -22.19983,-15.67321 -3.35221,-4.4697 -3.2774,-2.28777 -20.704872,-18.14889 -13.773497,-15.97216 -4.337323,-5.94201 -8.136517,-14.75749 -3.72721,-8.01236 -2.048239,-2.77463 -5.214746,-15.04795 -8.256198,-12.15683 -1.298221,-3.65688 -2.590957,-3.51089 -7.866313,-19.12059 -6.620951,-14.041113 -10.360641,-7.201081 3.922598,-11.426137 23.587089,16.39402 1.877466,3.981559 2.230606,5.421918 14.947974,20.255344 4.173582,11.75631 6.055165,10.22767 9.514894,12.88928 4.644565,9.98438 12.006107,16.78553 6.723818,5.0437 20.411561,16.60929 1.62421,0.4444 14.64591,3.81779 11.72732,4.446 2.01684,-1.46901 1.2544,-3.16607 6.70151,-17.13674 6.7408,-5.61853 4.90478,-15.05771 5.3519,-11.6718 7.22319,-18.56414 1.3118,-5.98228 0.29705,-2.87024 -0.14008,-3.52231 -1.20437,-32.800377 -0.55958,-1.644516 -0.54223,-1.431742 -7.26193,-38.748549 -1.17824,-4.640428 12.90214,-29.341454" /></g></g><g
         id="g64"
         style=""><g
           clip-path="url(#clipPath70)"
           id="g66"
           style=""><path
             inkscape:connector-curvature="0"
             id="path72"
             style="fill:#3fbc73;fill-opacity:1;fill-rule:nonzero;stroke:none"
             d="m 148.73105,2.401576 -4.24253,20.415807 22.49288,13.480963 11.44385,-26.025089 7.63941,3.350957 -12.90214,29.341454 1.17824,4.640428 7.26193,38.748549 0.54223,1.431742 0.55958,1.644516 1.20437,32.800377 0.14008,3.52231 -0.29705,2.87024 -1.3118,5.98228 -7.22319,18.56414 -5.3519,11.6718 -4.90478,15.05771 -6.7408,5.61853 -6.70151,17.13674 -1.2544,3.16607 -2.01684,1.46901 -11.72732,-4.446 -14.64591,-3.81779 -1.62421,-0.4444 -20.411561,-16.60929 -6.723818,-5.0437 L 81.107754,160.1434 76.463189,150.15902 66.948295,137.26974 60.89313,127.04207 56.719548,115.28576 41.771574,95.030416 39.540968,89.608498 37.663502,85.626939 14.076413,69.232919 l 0.08586,-0.250101 12.801028,-16.446762 19.705211,7.139422 1.148837,1.24247 5.587269,-0.217514 -4.10265,-2.299869 9.937471,-19.322035 -10.048869,-9.897754 7.707639,-5.035652 9.561609,9.417823 6.141275,6.608251 12.902036,0.81965 10.284072,3.579558 3.514198,-0.232619 16.830761,-0.542949 14.3654,-5.41059 0.0888,-11.62378 6.15894,-2.29523 4.71024,-22.666529 m 29.14354,255.449691 -3.28752,-9.96173 -14.98144,2.56185 1.82423,11.38929 -8.57791,0.71079 -3.55109,-22.17067 29.16323,-4.98696 6.39956,19.39175 M 108.2416,73.898953 l -13.071298,5.817168 -7.454118,-1.567887 -0.309974,7.457012 -0.265485,14.288442 6.318858,11.586182 5.264962,10.25067 21.354165,13.7479 6.71818,6.06998 8.21681,-2.24102 3.64571,-5.02521 2.94208,-11.42777 4.14724,-20.85258 -1.81893,-17.058261 -22.71454,-11.42115" /></g></g><g
         id="g74"
         style=""><g
           clip-path="url(#clipPath80)"
           id="g76"
           style=""><path
             inkscape:connector-curvature="0"
             id="path82"
             style="fill:#84d44b;fill-opacity:1;fill-rule:nonzero;stroke:none"
             d="m 156.00658,3.004444 -2.11157,10.161261 11.19504,6.709683 5.69579,-12.953088 7.63941,3.350957 L 166.9814,36.298346 144.48852,22.817383 148.73105,2.401576 M 163.61,260.31409 l -0.17547,-0.53172 -0.79965,0.13674 0.0974,0.60791 -8.57792,0.71079 -1.82423,-11.38929 14.98144,-2.56185 3.28752,9.96173 M 40.050795,35.721244 l 1.377052,0.498921 0.702549,-1.36601 -0.647464,-0.637728 7.707638,-5.035651 10.048869,9.897754 -9.937471,19.322035 4.10265,2.299869 -5.587269,0.217514 -1.148837,-1.24247 -19.705211,-7.139422 m 94.251939,20.986373 22.71454,11.42115 1.81893,17.058261 -4.14724,20.85258 -2.94208,11.42777 -3.64571,5.02521 -8.21681,2.24102 -6.71818,-6.06998 -21.354165,-13.7479 -5.264962,-10.25067 -6.318858,-11.586182 0.265485,-14.288442 0.309974,-7.457012 7.454118,1.567887 13.071298,-5.817168" /></g></g><g
         id="g84"
         style=""><g
           clip-path="url(#clipPath90)"
           id="g86"
           style=""><path
             inkscape:connector-curvature="0"
             id="path92"
             style="fill:#d8e219;fill-opacity:1;fill-rule:nonzero;stroke:none"
             d="m 170.78584,6.9223 -5.69579,12.953088 -11.19504,-6.709683 2.11157,-10.161261 7.20934,0.597383 m -0.48367,256.925193 -0.0974,-0.60791 0.79965,-0.13674 0.17547,0.53172 -0.39408,0.17286 M 41.482932,34.216427 l 0.647464,0.637728 -0.702549,1.36601 -1.377052,-0.498921 0.901321,-1.158017" /></g></g></g></g><g
     inkscape:groupmode="layer"
     id="layer1"
     inkscape:label="Mesh"
     style="display:inline"><g
       transform="matrix(1.3333333,0,0,-1.3333333,0,352.11835)"
       id="g94"><g
         id="g96"
         clip-path="url(#clipPath100)"><path
           d="m 0,110.23611 v 43.61655 M 40.952116,34.563227 14.162273,68.982818 M 119.74834,0 77.466435,10.707232 M 163.21592,3.601827 119.74834,0 M 203.1588,21.122398 163.21592,3.601827 m 72.03262,47.06126 -32.08974,-29.540689 m 52.84893,67.900306 -20.75919,-38.359617 m 27.93824,81.381303 -7.17905,-43.021686 m 0,86.043366 7.17905,-43.02168 m -27.93824,81.3813 20.75919,-38.35962 m -52.84893,67.90031 32.08974,-29.54069 m -72.03262,47.06126 39.94288,-17.52057 m -83.41046,21.12239 43.46758,-3.60182 m -85.749485,-7.10541 42.281905,10.70723 M 40.952116,229.52555 77.466435,253.38154 M 14.162273,195.10596 0,153.85266 m 14.162273,41.2533 26.789843,34.41959 M 168.16808,46.602617 163.21592,3.601827 m 4.95216,43.00079 34.99072,-25.480219 m -34.99072,25.480219 12.27655,41.507567 m -89.69867,56.861126 39.94389,-12.92692 m -39.94389,12.92692 -23.581458,-34.7352 m 23.581458,34.7352 3.208385,43.30095 M 90.74596,144.97131 51.284741,159.30419 m 55.566599,66.87632 12.897,37.90826 m -12.897,-37.90826 -29.384905,27.20103 M 106.85134,226.18051 93.954345,188.27226 m 102.504685,15.21651 38.78951,9.93692 m -38.78951,-9.93692 6.69977,39.47761 m -6.69977,-39.47761 -6.69977,-39.47761 m -9.30425,-37.38022 9.30425,37.38022 m -9.30425,-37.38022 -0.0104,-38.520756 m 0.0104,38.520756 37.42182,-9.13549 m -67.18507,48.14737 -20.00191,-33.59843 m 20.00191,33.59843 39.0675,-1.63166 M 33.582251,126.47159 0,153.85266 M 33.582251,126.47159 0,110.23611 m 33.582251,16.23548 33.582251,-16.23548 m -17.313836,84.72793 -8.89855,34.56151 m 8.89855,-34.56151 -35.688393,0.14192 m 35.688393,-0.14192 1.434075,-35.65985 m 181.443829,-10.23255 30.45821,-17.02725 m -30.45821,17.02725 23.27916,25.99443 m -23.27916,-25.99443 -14.85174,-31.57619 m -1.86475,-36.158594 19.23646,-30.673769 m -19.23646,30.673769 39.99565,7.685848 m -39.99565,-7.685848 -35.56745,6.773328 M 95.727345,39.987601 77.466435,10.707232 m 18.26091,29.280369 21.906095,26.663157 M 139.29947,28.141703 119.74834,0 m 19.55113,28.141703 23.91645,-24.539876 m -23.91645,24.539876 28.86861,18.460914 M 44.451075,84.743041 14.162273,68.982818 M 44.451075,84.743041 67.164502,110.23611 M 44.451075,84.743041 72.905423,65.871202 M 44.451075,84.743041 33.582251,126.47159 m 68.520979,-14.58288 28.58662,20.15568 m -28.58662,-20.15568 -34.938728,-1.6526 m 34.938728,1.6526 -11.35727,33.0826 m 42.9393,-47.525212 -2.99541,34.598292 m 2.99541,-34.598292 -16.05182,-30.79534 m 16.05182,30.79534 -31.58203,14.442612 m 36.57015,124.61345 24.54254,23.98479 m -24.54254,-23.98479 -18.92504,27.58661 m 18.92504,-27.58661 10.41831,-31.79053 m -10.41831,31.79053 -31.82204,-10.32165 m 66.5336,1.53149 29.77386,15.25438 M 173.38494,227.712 163.21592,260.48695 M 173.38494,227.712 149.09169,204.71163 m 24.29325,23.00037 23.07409,-24.22323 m -23.07409,24.22323 -34.71156,8.79016 m 83.89255,-54.90846 33.4418,-6.52763 m -33.4418,6.52763 12.68261,31.83199 M 222.56593,181.5937 189.75926,164.01116 m 32.80667,17.58254 -26.1069,21.89507 m 26.1069,-21.89507 10.16264,-32.52206 m -159.252197,70.40162 3.990062,33.90828 m -3.990062,-33.90828 -32.524257,10.05229 m 32.524257,-10.05229 20.477972,-31.201 m -20.477972,31.201 33.374967,6.70725 M 73.476373,219.47326 49.850666,194.96404 m 68.513644,-32.82896 12.32554,-30.09069 m -12.32554,30.09069 -24.409965,26.13718 M 118.36431,162.13508 90.74596,144.97131 m 27.61835,17.16377 32.32745,3.50774 M 203.98447,52.425202 203.1588,21.122398 m 0.82567,31.302804 31.26407,-1.762115 m -31.26407,1.762115 -23.53984,35.684982 m 23.53984,-35.684982 -35.81639,-5.822585 m 35.81639,5.822585 12.02761,28.911654 m -62.77841,-7.747858 -35.60023,-6.93824 m 35.60023,6.93824 27.21096,14.521186 M 153.23367,73.588998 168.16808,46.602617 m -14.93441,26.986381 -19.54841,23.8571 M 120.34541,200.4416 93.954345,188.27226 m 26.391065,12.16934 28.74628,4.27003 m -28.74628,-4.27003 -13.49407,25.73891 m 13.49407,-25.73891 18.32797,36.06056 m -18.32797,-36.06056 -1.9811,-38.30652 m 52.74743,23.91122 18.64752,-22.03514 m -18.64752,22.03514 -22.02005,18.66533 m 22.02005,-18.66533 25.34729,17.44247 M 171.11174,186.0463 150.69176,165.64282 m 20.41998,20.40348 2.2732,41.6657 m -13.40539,-120.33592 -29.2897,24.66831 m 29.2897,-24.66831 20.46508,-19.265896 m -20.46508,19.265896 20.47546,19.25486 m -20.47546,-19.25486 -26.29429,-9.929982 m 26.29429,9.929982 -6.74588,-33.787082 M 59.209275,22.635229 40.952116,34.563227 M 59.209275,22.635229 77.466435,10.707232 M 94.957631,84.150885 117.63344,66.650758 M 94.957631,84.150885 72.905423,65.871202 m 22.052208,18.279683 7.145599,27.737825 M 94.957631,84.150885 133.68526,97.446098 m 72.58479,44.789382 -16.51079,21.77568 m 16.51079,-21.77568 11.60678,-24.74003 m -11.60678,24.74003 -25.81504,-15.60454 m 25.81504,15.60454 26.45852,6.83616 m -26.45852,-6.83616 16.29588,39.35822 M 69.822352,177.90845 93.954345,188.27226 M 69.822352,177.90845 51.284741,159.30419 m 18.537611,18.60426 20.923608,-32.93714 m -20.923608,32.93714 -19.971686,17.05559 m 19.971686,-17.05559 3.654021,41.56481 M 31.932309,176.38469 0,153.85266 m 31.932309,22.53203 -17.770036,18.72127 m 17.770036,-18.72127 19.352432,-17.0805 m -19.352432,17.0805 17.918357,18.57935 m 8.28958,-60.54482 9.024256,-24.18311 m -9.024256,24.18311 -6.855505,24.88497 m 6.855505,-24.88497 32.605714,10.55209 M 58.140246,134.41922 33.582251,126.47159 M 7.081136,89.609463 0,110.23611 M 7.081136,89.609463 14.162273,68.982818 M 7.081136,89.609463 44.451075,84.743041 m 3.597661,-25.462755 -33.886463,9.702532 m 33.886463,-9.702532 -7.09662,-24.717059 m 7.09662,24.717059 24.856687,6.590916 M 48.048736,59.280286 44.451075,84.743041 M 156.66012,139.3367 130.68985,132.04439 m 25.97027,7.29231 33.09914,24.67446 m -33.09914,-24.67446 23.79489,-12.70576 m -23.79489,12.70576 -5.96836,26.30612 m 5.96836,-26.30612 3.31943,-31.96062 M 26.950031,151.23617 0,153.85266 m 26.950031,-2.61649 24.33471,8.06802 m -24.33471,-8.06802 6.63222,-24.76458 m -6.63222,24.76458 4.982278,25.14852 M 26.950031,151.23617 58.140246,134.41922 M 201.18118,100.22909 180.44463,88.110184 m 20.73655,12.118906 16.69565,17.26636 m -16.69565,-17.26636 -20.72617,26.40185 m 20.72617,-26.40185 14.8309,-18.892234 m 24.00887,45.024014 23.16583,5.68352 m -23.16583,-5.68352 -22.14412,-8.86542 m 22.14412,8.86542 -7.29238,22.71077 m 3.87571,-46.2652 19.40345,-13.783736 m -19.40345,13.783736 26.5825,29.23795 m -26.5825,-29.23795 -18.72745,14.68901 m 18.72745,-14.68901 -20.5922,-21.469584 m 20.5922,21.469584 -35.4231,-2.57735 m 35.4231,2.57735 3.41667,23.55443 M 144.82189,51.308291 117.63344,66.650758 m 27.18845,-15.342467 23.34619,-4.705674 m -23.34619,4.705674 -5.52242,-23.166588 m 5.52242,23.166588 8.41178,22.280707 M 114.8494,24.265794 77.466435,10.707232 M 114.8494,24.265794 119.74834,0 m -4.89894,24.265794 2.78404,42.384964 M 114.8494,24.265794 95.727345,39.987601 m 19.122055,-15.721807 24.45007,3.875909 m -24.45007,-3.875909 29.97249,27.042497 m -7.44268,133.356479 11.71248,20.04686 m -11.71248,-20.04686 13.31255,-19.02195 m -13.31255,19.02195 -19.0149,-22.52969 m 19.0149,22.52969 -17.0338,15.77683 m 17.0338,-15.77683 33.73253,1.38153 M 22.547172,106.44776 0,110.23611 m 22.547172,-3.78835 11.035079,20.02383 M 22.547172,106.44776 44.451075,84.743041 M 22.547172,106.44776 7.081136,89.609463 M 72.251019,42.291205 40.952116,34.563227 m 31.298903,7.727978 5.215416,-31.583973 m -5.215416,31.583973 0.654404,23.579997 M 72.251019,42.291205 95.727345,39.987601 M 72.251019,42.291205 59.209275,22.635229 M 72.251019,42.291205 48.048736,59.280286 m 24.772536,29.133924 -5.65677,21.8219 m 5.65677,-21.8219 0.08415,-22.543008 M 72.821272,88.41421 44.451075,84.743041 m 28.370197,3.671169 29.281958,23.4745 M 72.821272,88.41421 94.957631,84.150885 M 96.015905,62.08098 117.63344,66.650758 M 96.015905,62.08098 72.905423,65.871202 M 96.015905,62.08098 95.727345,39.987601 m 0.28856,22.093379 -1.058274,22.069905 M 96.015905,62.08098 72.251019,42.291205 v 0"
           style="fill:none;stroke:#ffffff;stroke-width:2.5;stroke-linecap:square;stroke-linejoin:round;stroke-miterlimit:10;stroke-dasharray:none;stroke-opacity:0.25"
           id="path102"
           inkscape:connector-curvature="0" /></g></g></g></svg>
