<?xml version="1.0" encoding="UTF-8" standalone="no"?>
<!-- Created with Inkscape (http://www.inkscape.org/) -->

<svg
   xmlns:dc="http://purl.org/dc/elements/1.1/"
   xmlns:cc="http://creativecommons.org/ns#"
   xmlns:rdf="http://www.w3.org/1999/02/22-rdf-syntax-ns#"
   xmlns:svg="http://www.w3.org/2000/svg"
   xmlns="http://www.w3.org/2000/svg"
   xmlns:sodipodi="http://sodipodi.sourceforge.net/DTD/sodipodi-0.dtd"
   xmlns:inkscape="http://www.inkscape.org/namespaces/inkscape"
   version="1.1"
   id="svg2"
   xml:space="preserve"
   width="205.65863"
   height="181.2"
   viewBox="0 0 205.65863 181.2"
   sodipodi:docname="gaussian-process2.svg"
   inkscape:version="0.92.5 (2060ec1f9f, 2020-04-08)"><metadata
     id="metadata8"><rdf:RDF><cc:Work
         rdf:about=""><dc:format>image/svg+xml</dc:format><dc:type
           rdf:resource="http://purl.org/dc/dcmitype/StillImage" /><dc:title></dc:title></cc:Work></rdf:RDF></metadata><defs
     id="defs6"><clipPath
       clipPathUnits="userSpaceOnUse"
       id="clipPath20"><path
         d="m -3.6,102.96 h 167.4 v 167.4 H -3.6 Z"
         id="path18"
         inkscape:connector-curvature="0" /></clipPath><clipPath
       clipPathUnits="userSpaceOnUse"
       id="clipPath220"><path
         d="m -3.6,102.96 h 167.4 v 167.4 H -3.6 Z"
         id="path218"
         inkscape:connector-curvature="0" /></clipPath><clipPath
       clipPathUnits="userSpaceOnUse"
       id="clipPath432"><path
         d="M -3.6,-3.6 H 163.8 V 132.3 H -3.6 Z"
         id="path430"
         inkscape:connector-curvature="0" /></clipPath><clipPath
       clipPathUnits="userSpaceOnUse"
       id="clipPath442"><path
         d="M -3.6,-3.6 H 163.8 V 132.3 H -3.6 Z"
         id="path440"
         inkscape:connector-curvature="0" /></clipPath><clipPath
       clipPathUnits="userSpaceOnUse"
       id="clipPath452"><path
         d="M -3.6,-3.6 H 163.8 V 132.3 H -3.6 Z"
         id="path450"
         inkscape:connector-curvature="0" /></clipPath><clipPath
       clipPathUnits="userSpaceOnUse"
       id="clipPath466"><path
         d="m 163.8,102.96 h 167.4 v 167.4 H 163.8 Z"
         id="path464"
         inkscape:connector-curvature="0" /></clipPath><clipPath
       clipPathUnits="userSpaceOnUse"
       id="clipPath666"><path
         d="m 163.8,102.96 h 167.4 v 167.4 H 163.8 Z"
         id="path664"
         inkscape:connector-curvature="0" /></clipPath><clipPath
       clipPathUnits="userSpaceOnUse"
       id="clipPath878"><path
         d="M 163.8,-3.6 H 331.2 V 132.3 H 163.8 Z"
         id="path876"
         inkscape:connector-curvature="0" /></clipPath><clipPath
       clipPathUnits="userSpaceOnUse"
       id="clipPath888"><path
         d="M 163.8,-3.6 H 331.2 V 132.3 H 163.8 Z"
         id="path886"
         inkscape:connector-curvature="0" /></clipPath><clipPath
       clipPathUnits="userSpaceOnUse"
       id="clipPath898"><path
         d="M 163.8,-3.6 H 331.2 V 132.3 H 163.8 Z"
         id="path896"
         inkscape:connector-curvature="0" /></clipPath><clipPath
       clipPathUnits="userSpaceOnUse"
       id="clipPath912"><path
         d="m 331.2,102.96 h 167.4 v 167.4 H 331.2 Z"
         id="path910"
         inkscape:connector-curvature="0" /></clipPath><clipPath
       clipPathUnits="userSpaceOnUse"
       id="clipPath1112"><path
         d="m 331.2,102.96 h 167.4 v 167.4 H 331.2 Z"
         id="path1110"
         inkscape:connector-curvature="0" /></clipPath><clipPath
       clipPathUnits="userSpaceOnUse"
       id="clipPath1324"><path
         d="M 331.2,-3.6 H 498.6 V 132.3 H 331.2 Z"
         id="path1322"
         inkscape:connector-curvature="0" /></clipPath><clipPath
       clipPathUnits="userSpaceOnUse"
       id="clipPath1334"><path
         d="M 331.2,-3.6 H 498.6 V 132.3 H 331.2 Z"
         id="path1332"
         inkscape:connector-curvature="0" /></clipPath><clipPath
       clipPathUnits="userSpaceOnUse"
       id="clipPath1344"><path
         d="M 331.2,-3.6 H 498.6 V 132.3 H 331.2 Z"
         id="path1342"
         inkscape:connector-curvature="0" /></clipPath></defs><sodipodi:namedview
     pagecolor="#ffffff"
     bordercolor="#666666"
     borderopacity="1"
     objecttolerance="10"
     gridtolerance="10"
     guidetolerance="10"
     inkscape:pageopacity="0"
     inkscape:pageshadow="2"
     inkscape:window-width="2430"
     inkscape:window-height="1547"
     id="namedview4"
     showgrid="false"
     inkscape:zoom="4.9212121"
     inkscape:cx="58.505719"
     inkscape:cy="84.319745"
     inkscape:window-x="0"
     inkscape:window-y="0"
     inkscape:window-maximized="0"
     inkscape:current-layer="g10" /><g
     id="g10"
     inkscape:groupmode="layer"
     inkscape:label="surface_noisefree"
     transform="matrix(1.3333333,0,0,-1.3333333,-296.61346,260.11921)"><g
       id="g426"
       transform="translate(219.45813,62.789411)"><g
         id="g428"
         clip-path="url(#clipPath432)"><path
           d="m 4.009091,194.5875 v -339.75 l 1.53719,6.23158 1.53719,6.11141 1.53719,5.99124 1.53719,5.87106 1.53719,5.7509 1.53719,5.63073 1.53719,5.51055 1.537191,5.390378 1.53719,5.27021 1.53719,5.150038 1.53719,5.029867 1.53719,4.909695 1.53719,4.789524 1.53719,4.669353 1.53719,4.549181 1.53719,4.42901 1.53719,4.308838 1.53719,4.188667 1.53719,4.068496 1.537191,3.948324 1.53719,3.828153 1.53719,3.707981 1.53719,3.58781 1.53719,3.467639 1.53719,3.347467 1.53719,3.227295 1.53719,3.107125 1.53719,2.986953 1.53719,2.866781 1.53719,2.74661 1.53719,2.626439 1.537191,2.506267 1.53719,2.386096 1.53719,2.265924 1.53719,2.145753 1.53719,2.025582 1.53719,1.90541 1.53719,1.785239 1.53719,1.665067 1.53719,1.544896 1.53719,1.424724 1.53719,1.304553 1.53719,1.184382 1.537191,1.06421 1.53719,0.944039 1.53719,0.823868 1.53719,0.703696 1.53719,0.583524 1.53719,0.463354 1.53719,0.343181 1.53719,0.223011 1.53719,0.102839 1.53719,-0.01733 1.53719,-0.137503 1.53719,-0.257676 1.537191,-0.377846 1.53719,-0.498018 1.53719,-0.61819 1.53719,-0.738361 1.53719,-0.858532 1.53719,-0.978704 1.53719,-1.098875 1.537194,-1.219046 1.53719,-1.339218 1.53719,-1.45939 1.53719,-1.57956 1.53719,-1.699733 1.53719,-1.819903 1.53719,-1.940075 1.53719,-2.060246 1.53719,-2.180418 1.53719,-2.30059 1.53719,-2.42076 1.53719,-2.540932 1.53719,-2.661104 1.53719,-2.781275 1.53719,-2.901446 1.53719,-3.021618 1.53719,-3.141789 1.53719,-3.26196 1.53719,-3.382132 1.53719,-3.502303 1.53719,-3.622475 1.53719,-3.742646 1.53719,-3.862818 1.53719,-3.982989 1.53719,-4.10316 1.53719,-4.223332 1.53719,-4.343503 1.53719,-4.463675 1.53719,-4.583846 1.53719,-4.704017 1.53719,-4.824189 1.53719,-4.94436 1.53719,-5.064532 1.53719,-5.184703 1.53719,-5.304881 1.53719,-5.42504 1.53719,-5.54522 v 339.75 0 l -1.53719,-8.0434 -1.53719,-7.88625 -1.53719,-7.7291 -1.53719,-7.57195 -1.53719,-7.41481 -1.53719,-7.25766 -1.53719,-7.10051 -1.53719,-6.94337 -1.53719,-6.78621 -1.53719,-6.62908 -1.53719,-6.47192 -1.53719,-6.31478 -1.53719,-6.15763 -1.53719,-6.00048 -1.53719,-5.84333 -1.53719,-5.68619 -1.53719,-5.52904 -1.53719,-5.37189 -1.53719,-5.21475 -1.53719,-5.057595 -1.53719,-4.900451 -1.53719,-4.743305 -1.53719,-4.586157 -1.53719,-4.42901 -1.53719,-4.271862 -1.53719,-4.114715 -1.53719,-3.957569 -1.53719,-3.80042 -1.53719,-3.643274 -1.53719,-3.486126 -1.53719,-3.32898 -1.53719,-3.171832 -1.53719,-3.014684 -1.53719,-2.857538 -1.53719,-2.70039 -1.53719,-2.543243 -1.537194,-2.386096 -1.53719,-2.228949 -1.53719,-2.071801 -1.53719,-1.914654 -1.53719,-1.757507 -1.53719,-1.60036 -1.53719,-1.443212 -1.537191,-1.286065 -1.53719,-1.128918 -1.53719,-0.971771 -1.53719,-0.814623 -1.53719,-0.657477 -1.53719,-0.500329 -1.53719,-0.343182 -1.53719,-0.186034 -1.53719,-0.02889 -1.53719,0.128259 -1.53719,0.285408 -1.53719,0.442554 -1.537191,0.599701 -1.53719,0.756849 -1.53719,0.913996 -1.53719,1.071143 -1.53719,1.228291 -1.53719,1.385438 -1.53719,1.542585 -1.53719,1.699732 -1.53719,1.856879 -1.53719,2.014027 -1.53719,2.171174 -1.53719,2.328321 -1.537191,2.485468 -1.53719,2.642616 -1.53719,2.799762 -1.53719,2.95691 -1.53719,3.114058 -1.53719,3.271204 -1.53719,3.428352 -1.53719,3.585499 -1.53719,3.742646 -1.53719,3.899793 -1.53719,4.056941 -1.53719,4.214088 -1.537191,4.371235 -1.53719,4.528382 -1.53719,4.68553 -1.53719,4.842676 -1.53719,4.999822 -1.53719,5.15697 -1.53719,5.31412 -1.53719,5.47127 -1.53719,5.62841 -1.53719,5.78556 -1.53719,5.94271 -1.53719,6.09985 -1.537191,6.25701 -1.53719,6.41414 -1.53719,6.5713 -1.53719,6.72844 -1.53719,6.88559 -1.53719,7.04274 -1.53719,7.19989 z"
           style="fill:#2ca02c;fill-opacity:0.2;fill-rule:nonzero;stroke:#2ca02c;stroke-width:1;stroke-linecap:butt;stroke-linejoin:round;stroke-miterlimit:10;stroke-dasharray:none;stroke-opacity:0.2"
           id="path434"
           inkscape:connector-curvature="0" /></g></g><g
       id="g436"
       transform="translate(219.45813,62.789411)"><g
         id="g438"
         clip-path="url(#clipPath442)"><path
           d="m 4.009091,87 1.53719,-3.053972 1.53719,-2.984641 1.53719,-2.915313 1.53719,-2.845982 1.53719,-2.776653 1.53719,-2.707323 1.53719,-2.637994 1.537191,-2.568664 1.53719,-2.499334 1.53719,-2.430005 1.53719,-2.360675 1.53719,-2.291345 1.53719,-2.222015 1.53719,-2.152686 1.53719,-2.083357 1.53719,-2.014026 1.53719,-1.944697 1.53719,-1.875368 1.53719,-1.806037 1.537191,-1.736708 1.53719,-1.667379 1.53719,-1.598048 1.53719,-1.528719 1.53719,-1.45939 1.53719,-1.390059 1.53719,-1.32073 1.53719,-1.251401 1.53719,-1.18207 1.53719,-1.112741 1.53719,-1.043412 1.53719,-0.974082 1.537191,-0.904752 1.53719,-0.835422 1.53719,-0.766093 1.53719,-0.696763 1.53719,-0.627433 1.53719,-0.558104 1.53719,-0.488774 1.53719,-0.419445 1.53719,-0.350114 1.53719,-0.280785 1.53719,-0.211456 1.53719,-0.142126 1.537191,-0.0728 1.53719,-0.0035 1.53719,0.06586 1.53719,0.135193 1.53719,0.204522 1.53719,0.273852 1.53719,0.343182 1.53719,0.412512 1.53719,0.481841 1.53719,0.551171 1.53719,0.6205 1.53719,0.68983 1.537191,0.75916 1.53719,0.828489 1.53719,0.897819 1.53719,0.967149 1.53719,1.036479 1.53719,1.105808 1.53719,1.175137 1.537194,1.244468 1.53719,1.313797 1.53719,1.383127 1.53719,1.452456 1.53719,1.521786 1.53719,1.591116 1.53719,1.660445 1.53719,1.729775 1.53719,1.799105 1.53719,1.868434 1.53719,1.937764 1.53719,2.007094 1.53719,2.076423 1.53719,2.145753 1.53719,2.215083 1.53719,2.284412 1.53719,2.353742 1.53719,2.423072 1.53719,2.492401 1.53719,2.561731 1.53719,2.631061 1.53719,2.70039 1.53719,2.76972 1.53719,2.839049 1.53719,2.90838 1.53719,2.977708 1.53719,3.047039 1.53719,3.116368 1.53719,3.185698 1.53719,3.255028 1.53719,3.324357 1.53719,3.393687 1.53719,3.46302 1.53719,3.53234 1.53719,3.60168 1.53719,3.67101 1.53719,3.74033"
           style="fill:none;stroke:#1f77b4;stroke-width:1.5;stroke-linecap:square;stroke-linejoin:round;stroke-miterlimit:10;stroke-dasharray:none;stroke-opacity:1"
           id="path444"
           inkscape:connector-curvature="0" /></g></g><g
       id="g446"
       transform="translate(219.45813,62.789411)"><g
         id="g448"
         clip-path="url(#clipPath452)"><path
           d="m 4.009091,24.7125 1.53719,-0.562726 1.53719,-0.544238 1.53719,-0.525749 1.53719,-0.507263 1.53719,-0.488774 1.53719,-0.470286 1.53719,-0.451798 1.537191,-0.43331 1.53719,-0.414823 1.53719,-0.396334 1.53719,-0.377847 1.53719,-0.359359 1.53719,-0.340871 1.53719,-0.322383 1.53719,-0.303895 1.53719,-0.285407 1.53719,-0.266919 1.53719,-0.248431 1.53719,-0.229944 1.537191,-0.211455 1.53719,-0.192968 1.53719,-0.174479 1.53719,-0.155992 1.53719,-0.137504 1.53719,-0.119016 1.53719,-0.100528 1.53719,-0.08204 1.53719,-0.06355 1.53719,-0.04506 1.53719,-0.02658 1.53719,-0.0081 1.537191,0.0104 1.53719,0.02889 1.53719,0.04738 1.53719,0.06586 1.53719,0.08435 1.53719,0.102839 1.53719,0.121327 1.53719,0.139815 1.53719,0.158303 1.53719,0.17679 1.53719,0.195279 1.53719,0.213766 1.537191,0.232255 1.53719,0.250742 1.53719,0.26923 1.53719,0.287718 1.53719,0.306206 1.53719,0.324694 1.53719,0.343182 1.53719,0.36167 1.53719,0.380157 1.53719,0.398646 1.53719,0.417133 1.53719,0.435622 1.537191,0.454109 1.53719,0.472597 1.53719,0.491085 1.53719,0.509573 1.53719,0.528061 1.53719,0.546549 1.53719,0.565037 1.537194,0.583524 1.53719,0.602013 1.53719,0.6205 1.53719,0.638989 1.53719,0.657476 1.53719,0.675964 1.53719,0.694452 1.53719,0.71294 1.53719,0.731428 1.53719,0.749916 1.53719,0.768404 1.53719,0.786891 1.53719,0.80538 1.53719,0.823867 1.53719,0.842356 1.53719,0.860843 1.53719,0.879331 1.53719,0.897819 1.53719,0.916307 1.53719,0.934795 1.53719,0.953283 1.53719,0.971771 1.53719,0.990258 1.53719,1.008747 1.53719,1.027234 1.53719,1.045723 1.53719,1.06421 1.53719,1.082698 1.53719,1.101186 1.53719,1.119674 1.53719,1.138162 1.53719,1.15665 1.53719,1.175138 1.53719,1.193626 1.53719,1.212113 1.53719,1.230602 1.53719,1.249089"
           style="fill:none;stroke:#2ca02c;stroke-width:1.5;stroke-linecap:square;stroke-linejoin:round;stroke-miterlimit:10;stroke-dasharray:none;stroke-opacity:1"
           id="path454"
           inkscape:connector-curvature="0" /></g></g></g></svg>
