<?xml version="1.0" standalone="no"?>
<!DOCTYPE svg PUBLIC "-//W3C//DTD SVG 20010904//EN"
 "http://www.w3.org/TR/2001/REC-SVG-20010904/DTD/svg10.dtd">
<svg version="1.0" xmlns="http://www.w3.org/2000/svg"
 width="1040.000000pt" height="1040.000000pt" viewBox="0 0 1040.000000 1040.000000"
 preserveAspectRatio="xMidYMid meet">
<metadata>
Created by potrace 1.14, written by Peter Selinger 2001-2017
</metadata>
<g transform="translate(0.000000,1040.000000) scale(0.100000,-0.100000)"
fill="#000000" stroke="none">
<path d="M7415 9771 c-21 -9 -56 -46 -68 -71 -9 -19 -30 -54 -37 -60 -25 -22
-154 -362 -143 -374 4 -3 0 -6 -7 -6 -7 0 -11 -3 -7 -6 3 -3 1 -18 -5 -33 -5
-14 -12 -36 -14 -48 -2 -12 -20 -79 -39 -150 -20 -70 -38 -144 -41 -163 -3
-19 -7 -37 -9 -40 -2 -3 -15 -59 -30 -125 -14 -66 -31 -142 -37 -170 -6 -27
-13 -57 -14 -65 -2 -15 -41 -207 -50 -245 -5 -25 -12 -60 -19 -109 -4 -21 -9
-48 -11 -60 -3 -11 -7 -32 -10 -46 -2 -14 -7 -36 -9 -50 -8 -41 -13 -65 -19
-101 -7 -40 -14 -74 -22 -109 -3 -14 -7 -38 -9 -55 -1 -16 -4 -30 -5 -30 -1 0
-3 -13 -5 -30 -1 -16 -3 -30 -5 -30 -1 0 -3 -9 -4 -20 -2 -11 -6 -38 -10 -60
-4 -22 -9 -53 -11 -70 -3 -16 -8 -41 -10 -55 -10 -48 -13 -65 -19 -114 -4 -27
-9 -53 -11 -57 -3 -3 -7 -28 -10 -55 -5 -46 -11 -83 -15 -94 -1 -3 -2 -8 -1
-13 1 -4 -3 -26 -8 -50 -6 -23 -12 -60 -15 -82 -5 -39 -12 -84 -22 -135 -2
-14 -7 -42 -10 -63 -7 -47 -12 -72 -14 -72 -1 0 -3 -13 -4 -30 -6 -55 -17
-129 -20 -134 -2 -3 -7 -33 -11 -66 -3 -32 -8 -62 -10 -65 -2 -3 -6 -23 -9
-45 -3 -22 -8 -51 -11 -65 -2 -14 -7 -43 -10 -65 -8 -53 -16 -103 -21 -129 -2
-11 -7 -41 -10 -66 -3 -25 -7 -52 -9 -60 -3 -8 -7 -33 -10 -55 -5 -36 -11 -69
-30 -184 -3 -19 -9 -39 -12 -44 -4 -6 -1 -7 6 -2 10 6 11 3 3 -12 -6 -11 -13
-37 -16 -59 -3 -21 -8 -50 -10 -64 -3 -14 -7 -43 -10 -65 -3 -22 -7 -51 -10
-65 -3 -14 -7 -41 -10 -60 -3 -19 -8 -46 -10 -60 -3 -14 -7 -41 -10 -60 -3
-19 -8 -44 -10 -56 -2 -12 -7 -45 -11 -75 -4 -30 -8 -56 -10 -59 -2 -3 -6 -25
-9 -50 -3 -25 -9 -56 -12 -70 -3 -14 -6 -32 -8 -40 -4 -26 -17 -104 -21 -125
-2 -11 -4 -20 -5 -20 -1 0 -3 -13 -5 -30 -2 -16 -6 -41 -9 -55 -3 -14 -9 -41
-11 -60 -3 -19 -7 -44 -10 -55 -5 -27 -22 -122 -30 -165 -3 -19 -8 -42 -10
-50 -2 -8 -7 -31 -10 -50 -3 -19 -10 -57 -15 -85 -6 -27 -12 -63 -15 -80 -2
-16 -6 -39 -9 -50 -11 -53 -38 -183 -41 -205 -2 -14 -6 -36 -9 -50 -3 -14 -9
-41 -12 -60 -7 -35 -9 -49 -19 -92 -5 -24 -25 -123 -30 -148 -2 -8 -4 -23 -4
-33 -1 -10 -6 -15 -11 -12 -6 4 -8 10 -5 15 3 4 1 10 -3 12 -7 3 -121 277
-126 303 -1 6 -7 19 -13 30 -6 11 -16 38 -23 60 -7 22 -17 49 -23 60 -6 11
-11 25 -12 30 0 6 -11 37 -24 70 -24 62 -111 306 -137 385 -8 25 -19 54 -24
65 -5 11 -30 81 -55 155 -26 74 -57 164 -70 200 -82 229 -163 462 -167 480 -2
8 -5 17 -8 20 -4 3 -13 28 -22 55 -9 28 -37 109 -63 180 -26 72 -48 135 -49
140 -1 6 -4 15 -7 20 -10 17 -33 90 -31 98 1 4 -3 7 -8 7 -5 0 -9 3 -8 8 3 10
-23 85 -35 100 -5 6 -6 12 -2 12 4 0 1 7 -6 17 -8 9 -13 19 -13 22 2 9 -53
162 -81 226 -8 16 -11 33 -9 37 3 4 0 8 -5 8 -6 0 -11 6 -11 13 0 7 -23 69
-50 138 -51 125 -56 136 -83 199 -9 19 -15 37 -14 40 0 3 -6 19 -16 35 -9 17
-25 50 -36 75 -78 181 -206 443 -259 530 -12 19 -25 42 -29 50 -12 27 -135
215 -152 231 -9 9 -25 29 -36 45 -29 42 -143 151 -192 185 -168 116 -308 90
-491 -89 -32 -31 -80 -84 -105 -117 -25 -33 -52 -67 -59 -76 -14 -17 -18 -22
-80 -124 -24 -38 -45 -74 -47 -80 -2 -5 -12 -22 -22 -37 -11 -14 -19 -33 -19
-42 0 -9 -4 -16 -10 -16 -5 0 -10 -7 -10 -15 0 -8 -4 -15 -10 -15 -5 0 -10 -4
-10 -9 0 -5 -34 -79 -76 -165 -41 -85 -75 -159 -75 -163 -1 -5 -6 -17 -12 -28
-6 -11 -12 -22 -13 -25 0 -3 -9 -23 -19 -45 -10 -22 -19 -42 -20 -45 -1 -3 -9
-22 -19 -42 -9 -21 -16 -39 -15 -40 1 -2 -8 -22 -20 -45 -12 -24 -18 -43 -14
-43 5 0 3 -4 -2 -8 -6 -4 -25 -45 -44 -92 -18 -47 -40 -99 -47 -117 -8 -17
-14 -36 -14 -42 0 -6 -4 -19 -10 -29 -16 -28 -70 -172 -70 -186 0 -8 -4 -16
-8 -18 -4 -1 -15 -25 -24 -53 -33 -102 -63 -180 -71 -186 -5 -3 -8 -10 -8 -15
1 -19 -24 -89 -34 -96 -5 -4 -7 -8 -2 -8 4 0 1 -15 -7 -34 -8 -19 -31 -83 -51
-143 -20 -59 -40 -117 -45 -128 -5 -11 -14 -38 -21 -60 -6 -22 -15 -44 -19
-50 -3 -5 -17 -45 -30 -87 -14 -43 -28 -78 -33 -78 -4 0 -6 -4 -3 -9 3 -5 -6
-36 -19 -70 -14 -33 -27 -69 -29 -78 -1 -10 -6 -25 -9 -33 -28 -69 -64 -180
-59 -184 3 -3 0 -6 -6 -6 -7 0 -12 -6 -12 -14 0 -8 -5 -27 -11 -43 -6 -15 -10
-29 -10 -30 0 -2 -13 -40 -30 -85 -17 -46 -46 -128 -65 -183 -19 -55 -38 -107
-41 -115 -3 -8 -7 -17 -8 -20 -1 -3 -4 -12 -7 -20 -3 -8 -16 -44 -28 -80 -13
-36 -28 -78 -35 -95 -7 -16 -27 -70 -45 -120 -17 -49 -40 -109 -51 -132 -10
-24 -19 -45 -19 -48 0 -7 -68 -182 -86 -222 -8 -17 -14 -34 -14 -37 0 -4 -7
-23 -17 -44 -9 -20 -17 -39 -18 -42 -4 -11 -19 -47 -35 -85 -66 -152 -87 -200
-122 -275 -22 -47 -39 -85 -38 -85 6 0 -283 -549 -301 -571 -5 -6 -6 -14 -2
-17 3 -4 1 -7 -4 -7 -6 0 -21 -21 -34 -47 -12 -27 -26 -50 -29 -53 -4 -3 -14
-18 -23 -35 -8 -16 -23 -45 -32 -62 -10 -18 -21 -33 -26 -33 -5 0 -9 -5 -9
-11 0 -12 -59 -110 -154 -258 -36 -56 -66 -106 -66 -110 0 -5 -3 -11 -8 -13
-4 -2 -58 -79 -121 -173 -109 -163 -234 -337 -272 -380 -10 -11 -37 -42 -61
-69 -188 -215 -391 -411 -468 -452 -34 -19 13 -19 2563 -22 1429 -1 3765 -1
5190 0 2544 3 2591 3 2552 22 -22 10 -48 26 -59 35 -10 9 -19 14 -20 11 -2 -6
-100 43 -104 53 -2 4 -12 7 -23 7 -10 0 -19 3 -19 8 0 4 -31 23 -70 41 -38 19
-70 38 -70 43 0 4 -6 8 -14 8 -8 0 -21 6 -28 13 -7 7 -26 21 -42 31 -39 25
-90 70 -148 131 -68 71 -80 86 -108 125 -13 19 -29 38 -35 42 -6 5 -6 8 0 8 6
0 5 4 -2 8 -24 15 -165 272 -223 407 -54 126 -117 287 -122 315 -2 8 -5 17 -8
20 -3 3 -16 39 -28 80 -13 41 -27 84 -31 95 -5 11 -14 40 -20 65 -7 25 -16 54
-20 65 -5 11 -19 56 -31 100 -12 44 -24 87 -27 95 -3 8 -7 22 -9 30 -3 18 -7
31 -23 90 -7 25 -14 52 -16 60 -2 8 -9 35 -15 60 -7 25 -14 52 -14 60 -1 9 -5
20 -8 25 -3 6 -9 28 -13 50 -5 22 -9 45 -11 50 -35 151 -46 196 -56 226 -6 20
-7 42 -4 48 4 6 3 11 -2 11 -5 0 -9 6 -10 13 -1 17 -9 59 -32 157 -10 47 -21
97 -24 113 -3 15 -7 35 -10 45 -8 25 -17 71 -23 117 -3 22 -8 42 -12 45 -3 3
-6 14 -7 25 -1 26 -9 72 -28 162 -16 74 -22 104 -31 158 -3 17 -10 50 -15 75
-5 25 -12 59 -14 75 -3 17 -10 52 -16 78 -5 27 -9 51 -8 55 1 4 -1 14 -4 22
-12 34 -28 141 -23 150 3 6 2 10 -4 10 -5 0 -10 8 -10 18 0 9 -2 31 -5 47 -3
17 -8 41 -10 55 -3 14 -5 25 -6 25 -1 0 -3 11 -5 25 -2 14 -11 66 -20 115 -9
50 -18 106 -20 125 -2 19 -4 36 -5 38 -4 3 -6 13 -14 72 -5 30 -10 64 -12 75
-14 70 -17 87 -29 180 -3 28 -8 58 -11 67 -3 9 -6 25 -8 35 -6 33 -19 118 -22
136 -1 9 -2 18 -4 20 -1 1 -3 16 -5 32 -2 17 -6 46 -10 65 -24 135 -34 204
-30 208 3 3 0 11 -6 19 -6 7 -9 13 -7 13 3 0 2 19 -3 43 -5 23 -11 65 -15 92
-8 58 -12 80 -15 80 -1 0 -2 11 -3 25 -1 14 -6 42 -10 63 -4 20 -9 52 -11 70
-3 17 -7 43 -10 57 -3 14 -8 45 -11 69 -3 25 -7 47 -9 50 -1 3 -6 35 -10 71
-4 36 -9 68 -11 71 -2 4 -6 24 -9 45 -4 22 -13 80 -21 129 -8 50 -17 104 -20
120 -2 17 -9 57 -15 90 -6 33 -12 74 -14 90 -2 17 -4 30 -5 30 -1 0 -4 12 -6
28 -1 15 -5 42 -9 60 -3 17 -7 44 -10 59 -2 15 -9 55 -16 90 -6 35 -13 74 -15
88 -5 40 -18 111 -28 159 -3 12 -8 43 -11 68 -2 24 -7 48 -9 51 -2 4 -7 30
-10 57 -4 28 -10 59 -13 70 -3 11 -7 27 -8 35 -1 14 -12 81 -20 125 -2 11 -4
20 -5 20 -2 0 -9 36 -14 77 -2 20 -7 41 -9 46 -3 4 -8 29 -11 54 -3 25 -12 75
-20 109 -8 35 -17 78 -20 94 -3 17 -8 41 -11 55 -3 14 -8 38 -10 54 -2 15 -7
35 -9 45 -3 9 -8 32 -11 51 -3 19 -11 53 -17 75 -5 22 -12 51 -14 65 -5 27
-28 129 -45 195 -5 22 -12 49 -14 60 -2 11 -11 47 -20 80 -8 33 -18 71 -21 84
-3 14 -7 28 -10 33 -3 5 -7 18 -10 31 -9 48 -14 66 -54 187 -43 128 -58 166
-91 233 -10 22 -19 45 -19 53 0 8 -4 14 -10 14 -5 0 -10 7 -10 15 0 8 -4 15
-10 15 -5 0 -10 6 -10 13 0 6 -17 32 -38 56 -33 39 -43 44 -87 47 -28 2 -59 0
-70 -5z"/>
</g>
</svg>
