<?xml version="1.0" standalone="no"?>
<!DOCTYPE svg PUBLIC "-//W3C//DTD SVG 20010904//EN"
 "http://www.w3.org/TR/2001/REC-SVG-20010904/DTD/svg10.dtd">
<svg version="1.0" xmlns="http://www.w3.org/2000/svg"
 width="1210.000000pt" height="1210.000000pt" viewBox="0 0 1210.000000 1210.000000"
 preserveAspectRatio="xMidYMid meet">
<metadata>
Created by potrace 1.11, written by Peter Selinger 2001-2013
</metadata>
<g transform="translate(0.000000,1210.000000) scale(0.100000,-0.100000)"
fill="#000000" stroke="none">
<path d="M5709 9204 c-87 -63 -305 -285 -412 -419 -493 -617 -784 -1407 -869
-2365 -19 -217 -16 -783 6 -1000 87 -887 356 -1641 789 -2215 198 -262 467
-529 564 -559 22 -7 63 22 63 44 0 5 -39 52 -86 102 -176 189 -322 380 -439
573 -425 700 -635 1631 -612 2720 28 1317 350 2256 1027 2994 104 114 112 126
98 154 -16 30 -61 20 -129 -29z"/>
<path d="M10437 9243 c-23 -22 0 -59 109 -180 217 -240 382 -478 526 -758 258
-504 399 -1038 470 -1775 20 -212 17 -999 -5 -1215 -49 -474 -117 -814 -236
-1175 -178 -538 -431 -969 -788 -1342 -88 -91 -103 -127 -64 -148 25 -13 54
-2 116 46 235 178 533 539 727 879 237 416 427 985 507 1515 70 467 80 1057
25 1531 -87 754 -346 1474 -718 1994 -229 322 -543 635 -635 635 -15 0 -31 -3
-34 -7z"/>
<path d="M2874 8951 c-170 -27 -360 -137 -484 -281 -182 -210 -279 -502 -416
-1252 l-48 -268 -273 0 c-308 0 -332 -4 -352 -60 -26 -75 -8 -116 54 -130 22
-5 149 -10 283 -10 171 0 242 -3 242 -11 0 -14 -207 -1115 -330 -1759 -103
-534 -259 -1308 -294 -1455 -83 -345 -185 -538 -321 -608 -50 -25 -160 -34
-236 -18 -66 14 -167 60 -192 88 -18 20 -17 21 27 27 65 10 160 61 201 108 69
81 98 217 63 298 -22 52 -76 99 -132 115 -66 20 -91 19 -170 -5 -51 -16 -79
-33 -125 -75 -122 -114 -151 -286 -75 -443 74 -151 285 -261 501 -262 101 0
165 15 263 63 71 34 102 58 186 142 264 262 441 675 602 1405 81 364 291 1446
422 2175 17 94 32 180 35 192 l5 22 338 3 c380 3 382 4 401 75 16 56 14 71
-14 98 l-24 25 -332 0 -331 0 5 23 c3 12 22 110 42 217 107 578 210 1078 240
1160 37 104 110 188 205 237 47 23 67 27 135 27 93 0 192 -27 274 -75 l55 -32
-66 -16 c-125 -32 -219 -118 -253 -235 -30 -100 -10 -183 58 -243 48 -42 97
-56 176 -51 119 9 221 81 278 196 25 51 28 67 28 162 0 95 -3 110 -29 164 -76
155 -261 257 -491 270 -44 3 -103 1 -131 -3z"/>
<path d="M7992 8585 c-108 -50 -212 -174 -310 -370 -144 -289 -266 -671 -557
-1735 -316 -1158 -475 -1650 -659 -2045 -250 -537 -489 -779 -853 -865 -29 -6
-53 -13 -53 -15 0 -4 49 -248 55 -274 5 -21 10 -23 45 -17 67 11 201 56 299
102 l94 44 2069 0 2068 0 71 -36 c79 -39 252 -99 316 -110 l41 -6 11 53 c41
204 49 244 48 245 -1 1 -45 13 -97 28 -382 108 -632 404 -898 1063 -162 401
-285 795 -557 1793 -306 1120 -423 1486 -573 1785 -92 184 -199 311 -304 360
-75 35 -182 35 -256 0z"/>
</g>
</svg>
